<svg width="362" height="53" viewBox="0 0 362 53" fill="none" xmlns="http://www.w3.org/2000/svg">
<path d="M9.97157 10.2637H0V33.5662H9.97157V10.2637Z" fill="#101010"/>
<path d="M9.97157 0.0214844H0V7.2835H9.97157V0.0214844Z" fill="#101010"/>
<path d="M58.501 7.40189C57.9317 5.91745 57.1171 4.61455 56.1455 3.53593C55.1542 2.47867 53.9569 1.59228 52.5926 0.972869C51.248 0.332103 49.8053 0.0117188 48.3037 0.0117188H17.0542V33.5558H27.0258V24.1793H48.3037C49.8053 24.1793 51.248 23.8589 52.5926 23.2181C53.9569 22.5987 55.1542 21.7337 56.1455 20.6551C57.1171 19.5764 57.9317 18.2735 58.501 16.7891C59.0899 15.3047 59.3843 13.7241 59.3843 12.1008C59.3843 10.4776 59.0899 8.87565 58.501 7.3912V7.40189ZM48.3528 14.8882C47.6559 15.6678 46.7824 16.0736 45.7813 16.0736H27.0258V8.14944H45.7813C46.7922 8.14944 47.6559 8.5339 48.3528 9.3135C49.0692 10.0931 49.4225 11.0329 49.4225 12.1115C49.4225 13.1901 49.0692 14.1192 48.3528 14.8988V14.8882Z" fill="#101010"/>
<path d="M107.582 10.2853C106.758 8.2242 105.659 6.41938 104.295 4.93494C102.911 3.4505 101.272 2.23304 99.3677 1.34665C97.4735 0.470934 95.4615 0.0117188 93.3808 0.0117188H78.6394C76.5587 0.0117188 74.5467 0.470934 72.6525 1.34665C70.7583 2.24372 69.0997 3.4505 67.7354 4.93494C66.3516 6.41938 65.2524 8.2242 64.4378 10.2853C63.633 12.3465 63.2109 14.5357 63.2109 16.7998C63.2109 19.0638 63.633 21.2531 64.4378 23.3142C65.2622 25.3754 66.3614 27.1802 67.7354 28.6646C69.0997 30.1704 70.7583 31.3665 72.6525 32.2529C74.5467 33.1286 76.5587 33.5665 78.6394 33.5665H93.3808C95.4713 33.5665 97.4735 33.1286 99.3677 32.2529C101.262 31.3558 102.921 30.1597 104.295 28.6646C105.659 27.1802 106.758 25.3754 107.582 23.3142C108.387 21.2531 108.809 19.0638 108.809 16.7998C108.809 14.5357 108.387 12.3465 107.582 10.2853ZM96.7178 22.3744C95.3045 23.9123 93.5869 24.6812 91.6044 24.6812H80.4453C78.4725 24.6812 76.755 23.9016 75.3319 22.3744C73.9186 20.8366 73.1923 18.9677 73.1923 16.7891C73.1923 14.6105 73.9186 12.7416 75.3319 11.2038C76.755 9.66592 78.4824 8.897 80.4453 8.897H91.6044C93.5869 8.897 95.3045 9.6766 96.7178 11.2038C98.1311 12.7416 98.8377 14.6105 98.8377 16.7891C98.8377 18.9677 98.1213 20.8366 96.7178 22.3744Z" fill="#101010"/>
<path d="M155.518 23.3559C155.518 25.1928 155.086 26.9122 154.261 28.482C153.427 30.0519 152.279 31.3014 150.836 32.2092C149.393 33.1062 147.813 33.5548 146.125 33.5548H114.974V26.25H142.906C143.622 26.25 144.25 25.9617 144.771 25.4064C145.281 24.851 145.566 24.1462 145.566 23.3452C145.566 22.5443 145.301 21.8394 144.771 21.2841C144.26 20.7288 143.622 20.4404 142.906 20.4404H122.57C120.882 20.4404 119.302 19.9705 117.859 19.0735C116.416 18.1657 115.268 16.9162 114.454 15.3463C113.619 13.7765 113.197 12.0571 113.197 10.2202C113.197 8.38335 113.619 6.66396 114.454 5.09409C115.278 3.52421 116.426 2.27472 117.859 1.36697C119.302 0.469894 120.882 0 122.57 0H153.712V7.33677H125.809C125.063 7.33677 124.425 7.62511 123.915 8.18044C123.404 8.73577 123.12 9.42994 123.12 10.2202C123.12 11.0105 123.385 11.6833 123.895 12.26C124.405 12.8367 125.073 13.125 125.799 13.125H146.115C147.803 13.125 149.383 13.5842 150.826 14.492C152.269 15.3997 153.417 16.6492 154.251 18.2191C155.076 19.7676 155.508 21.5084 155.508 23.3452L155.518 23.3559Z" fill="#101010"/>
<path d="M198.408 0.0214844V9.29122H183.834V33.5656H173.872V9.29122H159.297V0.0214844H198.408Z" fill="#101010"/>
<path d="M6.53648 44.9384V46.1345H1.18756V48.4306H6.0752V49.6267H1.18756V52.6917H0V44.9277H6.53648V44.9384Z" fill="#0132C5"/>
<path d="M11.0337 44.9395H12.2605L16.1177 52.7034H14.8418L13.9781 50.9093H9.34562L8.48194 52.7034H7.20605L11.0534 44.9395H11.0337ZM13.4579 49.7986L11.652 46.1783L9.83635 49.7986H13.4579Z" fill="#0132C5"/>
<path d="M23.4483 47.0534C23.2912 46.6903 23.0557 46.4233 22.7514 46.2417C22.4472 46.0602 22.0546 45.964 21.5737 45.964H19.8758C19.385 45.964 19.0121 46.0495 18.7569 46.231C18.4919 46.4019 18.3643 46.6475 18.3643 46.9679C18.3643 47.2029 18.4526 47.4164 18.6195 47.598C18.7863 47.7795 19.1004 47.9077 19.5519 47.9931L22.4275 48.3669C22.8005 48.431 23.1047 48.5378 23.3599 48.6766C23.6151 48.8155 23.8114 48.9863 23.9586 49.1892C24.1058 49.3921 24.2138 49.6057 24.2825 49.8514C24.3512 50.097 24.3806 50.3533 24.3806 50.6203C24.3806 51.2824 24.1451 51.8057 23.6838 52.2115C23.2225 52.6067 22.5551 52.8096 21.7013 52.8096H19.9641C19.1887 52.8096 18.5508 52.6601 18.0404 52.3503C17.5301 52.0406 17.1866 51.6135 16.9805 51.0368L18.0012 50.3533C18.168 50.8232 18.4134 51.1649 18.7471 51.3785C19.0808 51.5921 19.493 51.6882 19.9837 51.6882H21.7209C22.2116 51.6882 22.5944 51.5921 22.8397 51.3999C23.0949 51.2077 23.2225 50.9407 23.2225 50.5989C23.2225 50.2892 23.1342 50.0543 22.9477 49.8727C22.7612 49.6912 22.4766 49.563 22.0644 49.4776L19.0906 49.0718C18.7471 49.0077 18.4526 48.9009 18.2171 48.7727C17.9816 48.6446 17.7853 48.4844 17.638 48.3028C17.4908 48.1213 17.3829 47.9184 17.3142 47.7048C17.2455 47.4805 17.216 47.2456 17.216 47C17.216 46.3271 17.4516 45.8039 17.9128 45.4087C18.3741 45.0243 19.0513 44.832 19.9346 44.832H21.6129C22.2901 44.832 22.8496 44.9602 23.301 45.2165C23.7525 45.4728 24.0764 45.8252 24.2727 46.2738L23.4581 47.064L23.4483 47.0534Z" fill="#0132C5"/>
<path d="M32.6821 44.9395V46.1569H29.6102V52.6927H28.4128V46.1569H25.3311V44.9395H32.6821Z" fill="#0132C5"/>
<path d="M40.8291 44.9395H42.056L45.9131 52.7034H44.6372L43.7735 50.9093H39.141L38.2774 52.7034H37.0015L40.8488 44.9395H40.8291ZM43.2533 49.7986L41.4474 46.1783L39.6318 49.7986H43.2435H43.2533Z" fill="#0132C5"/>
<path d="M54.0297 44.9395H55.2075V52.7034H54.0886L48.5532 46.8724V52.7034H47.3755V44.9395H48.4943L54.0297 50.7811V44.9395Z" fill="#0132C5"/>
<path d="M61.5659 44.9383C62.1547 44.9383 62.6847 45.0237 63.146 45.2053C63.6073 45.3868 63.99 45.6431 64.3139 45.9742C64.6378 46.3053 64.8734 46.7218 65.0402 47.1916C65.2071 47.6615 65.2856 48.2062 65.2856 48.8042C65.2856 49.4023 65.2071 49.9363 65.0402 50.4168C64.8734 50.8974 64.6378 51.3032 64.3139 51.6343C63.9999 51.976 63.6073 52.2323 63.146 52.4032C62.6847 52.5741 62.1645 52.6702 61.5659 52.6702H57.2671V44.9062H61.5659V44.9383ZM58.4645 51.4955H61.5659C62.3805 51.4955 63.0086 51.2605 63.4503 50.7799C63.8821 50.2994 64.1078 49.6479 64.1078 48.8256C64.1078 47.9926 63.8919 47.3412 63.4503 46.8606C63.0086 46.38 62.3903 46.1344 61.5659 46.1344H58.4645V51.4955Z" fill="#0132C5"/>
<path d="M76.9613 44.9384V46.1025H71.6124V48.2597H76.5V49.4131H71.6124V51.5276H76.9613V52.6917H70.4248V44.9277H76.9613V44.9384Z" fill="#0132C5"/>
<path d="M81.9092 44.9395H83.136L86.9931 52.7034H85.7173L84.8536 50.9093H80.2211L79.3574 52.7034H78.0815L81.9288 44.9395H81.9092ZM84.3334 49.7986L82.5275 46.1783L80.7118 49.7986H84.3236H84.3334Z" fill="#0132C5"/>
<path d="M94.3237 47.0534C94.1667 46.6903 93.9312 46.4233 93.6269 46.2417C93.3227 46.0602 92.9301 45.964 92.4492 45.964H90.7513C90.2605 45.964 89.8876 46.0495 89.6324 46.231C89.3674 46.4019 89.2398 46.6475 89.2398 46.9679C89.2398 47.2029 89.3281 47.4164 89.495 47.598C89.6618 47.7795 89.9759 47.9077 90.4274 47.9931L93.303 48.3669C93.676 48.431 93.9802 48.5378 94.2354 48.6766C94.4906 48.8155 94.6869 48.9863 94.8341 49.1892C94.9813 49.3921 95.0893 49.6057 95.158 49.8514C95.2267 50.097 95.2561 50.3533 95.2561 50.6203C95.2561 51.2824 95.0206 51.8057 94.5593 52.2115C94.098 52.6067 93.4306 52.8096 92.5768 52.8096H90.8396C90.0642 52.8096 89.4263 52.6601 88.9159 52.3503C88.4056 52.0406 88.0621 51.6135 87.856 51.0368L88.8767 50.3533C89.0435 50.8232 89.2889 51.1649 89.6226 51.3785C89.9563 51.5921 90.3685 51.6882 90.8592 51.6882H92.5964C93.0871 51.6882 93.4699 51.5921 93.7152 51.3999C93.9704 51.2077 94.098 50.9407 94.098 50.5989C94.098 50.2892 94.0097 50.0543 93.8232 49.8727C93.6367 49.6912 93.3521 49.563 92.9399 49.4776L89.9661 49.0718C89.6226 49.0077 89.3281 48.9009 89.0926 48.7727C88.857 48.6446 88.6608 48.4844 88.5135 48.3028C88.3663 48.1213 88.2584 47.9184 88.1897 47.7048C88.121 47.4805 88.0915 47.2456 88.0915 47C88.0915 46.3271 88.3271 45.8039 88.7883 45.4087C89.2496 45.0243 89.9268 44.832 90.8101 44.832H92.4884C93.1656 44.832 93.7251 44.9602 94.1765 45.2165C94.628 45.4728 94.9519 45.8252 95.1482 46.2738L94.3336 47.064L94.3237 47.0534Z" fill="#0132C5"/>
<path d="M100.283 48.8268L103.149 44.9395H104.562L100.882 49.9161V52.6927H99.6843V49.9267L96.0137 44.9395H97.427L100.283 48.8268Z" fill="#0132C5"/>
<path d="M108.968 48.8155C108.968 48.196 109.057 47.6514 109.223 47.1601C109.39 46.6689 109.645 46.2524 109.969 45.9107C110.293 45.5689 110.696 45.3019 111.157 45.1097C111.628 44.9175 112.148 44.832 112.747 44.832H114.209C114.769 44.832 115.269 44.9068 115.711 45.0349C116.153 45.1631 116.555 45.4087 116.898 45.7505L116.221 46.7009C115.956 46.4553 115.662 46.2738 115.328 46.1776C114.994 46.0708 114.621 46.0174 114.209 46.0174H112.747C112.344 46.0174 111.981 46.0815 111.657 46.2097C111.334 46.3378 111.069 46.5301 110.843 46.765C110.617 47.0106 110.45 47.299 110.323 47.6407C110.195 47.9825 110.146 48.3669 110.146 48.7834C110.146 49.2213 110.205 49.6057 110.323 49.9475C110.44 50.2892 110.617 50.5882 110.843 50.8232C111.069 51.0688 111.334 51.2504 111.657 51.3785C111.981 51.5067 112.335 51.5707 112.747 51.5707H114.209C115.063 51.5707 115.74 51.3465 116.221 50.8873L116.898 51.8377C116.555 52.1688 116.162 52.4037 115.73 52.5426C115.299 52.6814 114.788 52.7562 114.209 52.7562H112.747C112.158 52.7562 111.628 52.66 111.157 52.4785C110.686 52.2969 110.293 52.03 109.969 51.6775C109.645 51.3251 109.39 50.9193 109.223 50.4174C109.057 49.9154 108.968 49.3708 108.968 48.7727V48.8155Z" fill="#0132C5"/>
<path d="M121.447 44.9395H122.674L126.531 52.7034H125.255L124.391 50.9093H119.759L118.895 52.7034H117.619L121.466 44.9395H121.447ZM123.871 49.7986L122.065 46.1783L120.249 49.7986H123.871Z" fill="#0132C5"/>
<path d="M135.49 52.7034H134.166L132.556 50.1403H129.18V52.7034H127.992V44.9395H132.468C132.949 44.9395 133.371 45.0035 133.724 45.1317C134.077 45.2598 134.381 45.4414 134.617 45.6657C134.853 45.8899 135.029 46.1676 135.147 46.488C135.265 46.8084 135.324 47.1715 135.324 47.5666C135.324 48.1646 135.186 48.6559 134.931 49.0724C134.666 49.4889 134.264 49.7772 133.714 49.9481L135.51 52.6927L135.49 52.7034ZM129.17 46.1035V49.019H132.458C133.017 49.019 133.429 48.9015 133.714 48.6559C133.999 48.4103 134.136 48.0579 134.136 47.588C134.136 47.0967 133.999 46.7336 133.714 46.488C133.429 46.2423 133.017 46.1142 132.458 46.1142H129.17V46.1035Z" fill="#0132C5"/>
<path d="M140.52 44.8427H142.031C142.62 44.8427 143.15 44.9175 143.602 45.0456C144.063 45.1844 144.465 45.4194 144.809 45.7611L144.141 46.7116C143.876 46.466 143.572 46.2844 143.229 46.1883C142.885 46.0815 142.483 46.0281 142.031 46.0281H140.52C140.098 46.0281 139.715 46.0922 139.381 46.2204C139.048 46.3485 138.773 46.5407 138.537 46.7757C138.302 47.0106 138.135 47.3097 138.017 47.6514C137.899 47.9931 137.84 48.3776 137.84 48.8048C137.84 49.232 137.899 49.6164 138.017 49.9582C138.135 50.2999 138.312 50.5989 138.527 50.8339C138.753 51.0795 139.028 51.2611 139.342 51.3999C139.666 51.5387 140.029 51.6028 140.431 51.6028H141.884C142.169 51.6028 142.424 51.5814 142.659 51.528C142.895 51.4746 143.111 51.3999 143.297 51.3038C143.484 51.2076 143.631 51.0795 143.759 50.9193C143.886 50.7591 143.955 50.5776 143.994 50.3747V49.7552H141.806V48.7087H144.985V52.6921H144.269L144.21 51.6882C144.004 52.0834 143.69 52.3717 143.278 52.5426C142.865 52.7135 142.385 52.7989 141.825 52.7989H140.363C139.784 52.7989 139.264 52.7028 138.802 52.5212C138.341 52.3397 137.948 52.062 137.634 51.7203C137.31 51.3678 137.065 50.9513 136.898 50.4601C136.731 49.9688 136.643 49.4242 136.643 48.8155C136.643 48.2067 136.731 47.6621 136.908 47.1708C137.085 46.6796 137.34 46.2631 137.664 45.9107C137.997 45.5582 138.4 45.2912 138.871 45.1097C139.352 44.9175 139.892 44.832 140.5 44.832L140.52 44.8427Z" fill="#0132C5"/>
<path d="M146.397 48.8165C146.397 48.1971 146.485 47.6524 146.652 47.1719C146.819 46.6913 147.074 46.2641 147.398 45.9224C147.722 45.5699 148.124 45.303 148.586 45.1214C149.057 44.9292 149.577 44.8438 150.176 44.8438H151.736C152.325 44.8438 152.855 44.9399 153.326 45.1214C153.797 45.303 154.2 45.5806 154.523 45.9224C154.847 46.2748 155.102 46.6913 155.269 47.1719C155.446 47.6631 155.524 48.2078 155.524 48.8058C155.524 49.4252 155.436 49.9699 155.269 50.4611C155.102 50.9524 154.847 51.3689 154.523 51.7213C154.2 52.0737 153.797 52.33 153.326 52.5223C152.855 52.7145 152.325 52.7999 151.736 52.7999H150.176C149.587 52.7999 149.057 52.7038 148.586 52.5223C148.115 52.3407 147.722 52.0737 147.398 51.7213C147.074 51.3689 146.819 50.9631 146.652 50.4611C146.485 49.9592 146.397 49.4145 146.397 48.8165ZM147.585 48.8165C147.585 49.2437 147.643 49.6281 147.761 49.9806C147.879 50.333 148.046 50.6213 148.262 50.8563C148.478 51.0912 148.752 51.2834 149.076 51.4116C149.4 51.5397 149.763 51.6038 150.176 51.6038H151.736C152.57 51.6038 153.208 51.3582 153.66 50.8563C154.111 50.3543 154.337 49.6708 154.337 48.8165C154.337 48.3786 154.278 47.9942 154.16 47.6524C154.043 47.3107 153.876 47.0224 153.66 46.7767C153.444 46.5418 153.169 46.3495 152.845 46.2214C152.521 46.0932 152.148 46.0292 151.736 46.0292H150.176C149.763 46.0292 149.4 46.0932 149.076 46.2214C148.752 46.3495 148.478 46.5418 148.262 46.7767C148.046 47.0117 147.869 47.3107 147.761 47.6524C147.653 47.9942 147.585 48.3786 147.585 48.8058V48.8165Z" fill="#0132C5"/>
<path d="M233.78 13.5781C232.532 13.5781 231.511 14.6566 231.511 15.994H332.38L329.764 13.5781H233.78Z" fill="#0132C5"/>
<path d="M233.78 19.9412C232.532 19.9412 231.511 18.8627 231.511 17.5254H332.38L329.764 19.9412H233.78Z" fill="#0132C5"/>
<path d="M361.921 16.5226L361.039 15.1637C360.702 14.7538 360.295 14.4626 359.859 14.2901L350.721 11.3673L344.041 6.79452L340.512 4.37869L337.638 2.41583L334.803 0.474538C334.357 0.161774 333.802 0 333.227 0H276.246C275.175 0 274.303 1.0785 274.303 2.41583H332.295L335.17 4.37869H261.18C260.11 4.37869 259.238 5.45719 259.238 6.79452H338.698L341.563 8.75739H246.105C245.034 8.75739 244.162 9.83588 244.162 11.1732H331.512L338.054 16.7706L331.512 22.368H244.172C244.172 23.7053 245.044 24.7838 246.115 24.7838H341.573L338.708 26.7467H259.238C259.238 28.084 260.11 29.1625 261.18 29.1625H335.17L332.295 31.1254H274.303C274.303 32.4519 275.175 33.5412 276.246 33.5412H333.227C333.802 33.5412 334.357 33.3794 334.803 33.0667L337.638 31.1254L340.512 29.1625L344.041 26.7467L350.721 22.1739L359.859 19.2404C360.305 19.0678 360.702 18.7658 361.039 18.3668L361.921 17.0079C361.97 16.9432 362 16.8569 362 16.7706C362 16.6843 361.97 16.598 361.921 16.5333V16.5226Z" fill="#101010"/>
</svg>
