<svg width="261" height="40" viewBox="0 0 261 40" fill="none" xmlns="http://www.w3.org/2000/svg">
<path d="M7.19512 8.36229H0.00585938V25.1628H7.19512V8.36229Z" fill="white"/>
<path d="M7.19512 0.978195H0.00585938V6.21393H7.19512V0.978195Z" fill="white"/>
<path d="M42.1839 6.29876C41.7735 5.22851 41.1862 4.28916 40.4856 3.5115C39.771 2.74924 38.9077 2.11017 37.9241 1.66359C36.9547 1.20162 35.9145 0.970627 34.8319 0.970627H12.3018V25.1551H19.491V18.3948H34.8319C35.9145 18.3948 36.9547 18.1639 37.9241 17.7019C38.9077 17.2553 39.771 16.6316 40.4856 15.854C41.1862 15.0763 41.7735 14.137 42.1839 13.0667C42.6084 11.9965 42.8207 10.8569 42.8207 9.68659C42.8207 8.51624 42.6084 7.3613 42.1839 6.29106V6.29876ZM34.8673 11.6962C34.3649 12.2583 33.7351 12.5508 33.0133 12.5508H19.491V6.83773H33.0133C33.7422 6.83773 34.3649 7.11492 34.8673 7.67699C35.3838 8.23906 35.6385 8.91663 35.6385 9.69429C35.6385 10.4719 35.3838 11.1418 34.8673 11.7039V11.6962Z" fill="white"/>
<path d="M77.5699 8.37765C76.9755 6.89163 76.183 5.59039 75.1994 4.52015C74.2017 3.4499 73.02 2.57215 71.6473 1.93308C70.2816 1.30171 68.831 0.970627 67.3309 0.970627H56.7026C55.2025 0.970627 53.7519 1.30171 52.3863 1.93308C51.0206 2.57985 49.8247 3.4499 48.8412 4.52015C47.8434 5.59039 47.0509 6.89163 46.4636 8.37765C45.8834 9.86368 45.5791 11.4421 45.5791 13.0744C45.5791 14.7067 45.8834 16.2851 46.4636 17.7712C47.058 19.2572 47.8505 20.5584 48.8412 21.6287C49.8247 22.7143 51.0206 23.5767 52.3863 24.2157C53.7519 24.8471 55.2025 25.1628 56.7026 25.1628H67.3309C68.8381 25.1628 70.2816 24.8471 71.6473 24.2157C73.0129 23.569 74.2088 22.7066 75.1994 21.6287C76.183 20.5584 76.9755 19.2572 77.5699 17.7712C78.1501 16.2851 78.4544 14.7067 78.4544 13.0744C78.4544 11.4421 78.1501 9.86368 77.5699 8.37765ZM69.7367 17.0936C68.7178 18.2024 67.4795 18.7567 66.0501 18.7567H58.0046C56.5824 18.7567 55.344 18.1947 54.318 17.0936C53.2991 15.9849 52.7754 14.6374 52.7754 13.0667C52.7754 11.496 53.2991 10.1486 54.318 9.03982C55.344 7.93107 56.5894 7.3767 58.0046 7.3767H66.0501C67.4795 7.3767 68.7178 7.93877 69.7367 9.03982C70.7557 10.1486 71.2651 11.496 71.2651 13.0667C71.2651 14.6374 70.7486 15.9849 69.7367 17.0936Z" fill="white"/>
<path d="M112.13 17.8019C112.13 19.1262 111.819 20.3658 111.224 21.4977C110.623 22.6295 109.795 23.5304 108.755 24.1848C107.715 24.8316 106.575 25.155 105.358 25.155H82.8989V19.8885H103.037C103.554 19.8885 104.007 19.6806 104.382 19.2802C104.75 18.8798 104.955 18.3716 104.955 17.7942C104.955 17.2167 104.764 16.7085 104.382 16.3081C104.014 15.9078 103.554 15.6999 103.037 15.6999H88.3758C87.1587 15.6999 86.0195 15.3611 84.9793 14.7143C83.9391 14.0598 83.1112 13.159 82.5239 12.0272C81.9224 10.8953 81.6182 9.65567 81.6182 8.33134C81.6182 7.00701 81.9224 5.76737 82.5239 4.63553C83.1183 3.50369 83.9462 2.60283 84.9793 1.94836C86.0195 1.3016 87.1587 0.962814 88.3758 0.962814H110.828V6.25245H90.7109C90.1731 6.25245 89.7132 6.46034 89.3452 6.86072C88.9772 7.2611 88.772 7.76157 88.772 8.33134C88.772 8.90111 88.9631 9.38619 89.3311 9.80197C89.699 10.2177 90.1802 10.4256 90.7038 10.4256H105.351C106.568 10.4256 107.708 10.7567 108.748 11.4112C109.788 12.0657 110.616 12.9665 111.217 14.0983C111.812 15.2148 112.123 16.4698 112.123 17.7942L112.13 17.8019Z" fill="white"/>
<path d="M143.054 0.977951V7.66121H132.546V25.1624H125.364V7.66121H114.856V0.977951H143.054Z" fill="white"/>
<path d="M4.71851 33.3626V34.225H0.86206V35.8804H4.38593V36.7428H0.86206V38.9526H0.00585938V33.3549H4.71851V33.3626Z" fill="#0132C5"/>
<path d="M7.96034 33.3627H8.84485L11.6257 38.9604H10.7058L10.0832 37.6668H6.74326L6.12057 38.9604H5.20068L7.97449 33.3627H7.96034ZM9.70812 36.8661L8.40613 34.2559L7.09706 36.8661H9.70812Z" fill="#0132C5"/>
<path d="M16.9112 34.8871C16.7979 34.6253 16.6281 34.4328 16.4088 34.3019C16.1894 34.171 15.9064 34.1017 15.5596 34.1017H14.3355C13.9817 34.1017 13.7128 34.1633 13.5288 34.2942C13.3378 34.4174 13.2458 34.5945 13.2458 34.8255C13.2458 34.9949 13.3095 35.1489 13.4297 35.2798C13.55 35.4107 13.7765 35.5031 14.102 35.5647L16.1753 35.8342C16.4441 35.8803 16.6635 35.9573 16.8475 36.0574C17.0315 36.1575 17.173 36.2807 17.2791 36.427C17.3853 36.5733 17.4631 36.7273 17.5126 36.9044C17.5622 37.0815 17.5834 37.2663 17.5834 37.4588C17.5834 37.9361 17.4136 38.3134 17.081 38.606C16.7484 38.8909 16.2672 39.0372 15.6516 39.0372H14.3992C13.8402 39.0372 13.3802 38.9294 13.0123 38.7061C12.6443 38.4828 12.3966 38.1748 12.248 37.7591L12.984 37.2663C13.1042 37.6051 13.2811 37.8514 13.5217 38.0054C13.7623 38.1594 14.0595 38.2287 14.4133 38.2287H15.6658C16.0196 38.2287 16.2955 38.1594 16.4724 38.0208C16.6564 37.8823 16.7484 37.6898 16.7484 37.4434C16.7484 37.2201 16.6847 37.0507 16.5503 36.9198C16.4158 36.7889 16.2106 36.6965 15.9134 36.6349L13.7694 36.3423C13.5217 36.2961 13.3095 36.2191 13.1396 36.1267C12.9698 36.0343 12.8283 35.9188 12.7221 35.788C12.616 35.6571 12.5382 35.5108 12.4886 35.3568C12.4391 35.1951 12.4179 35.0257 12.4179 34.8486C12.4179 34.3635 12.5877 33.9862 12.9203 33.7014C13.2528 33.4242 13.7411 33.2856 14.3779 33.2856H15.5879C16.0762 33.2856 16.4795 33.378 16.805 33.5628C17.1305 33.7476 17.364 34.0016 17.5055 34.325L16.9182 34.8948L16.9112 34.8871Z" fill="#0132C5"/>
<path d="M23.569 33.3627V34.2405H21.3542V38.9527H20.4909V34.2405H18.269V33.3627H23.569Z" fill="#0132C5"/>
<path d="M29.4428 33.3627H30.3273L33.1082 38.9604H32.1883L31.5656 37.6668H28.2257L27.603 38.9604H26.6831L29.4569 33.3627H29.4428ZM31.1905 36.8661L29.8886 34.2559L28.5795 36.8661H31.1835H31.1905Z" fill="#0132C5"/>
<path d="M38.9597 33.3627H39.8088V38.9604H39.0021L35.0112 34.7564V38.9604H34.1621V33.3627H34.9688L38.9597 37.5744V33.3627Z" fill="#0132C5"/>
<path d="M44.3933 33.3629C44.8178 33.3629 45.1999 33.4245 45.5325 33.5554C45.8651 33.6863 46.141 33.8711 46.3745 34.1097C46.6081 34.3484 46.7779 34.6487 46.8982 34.9875C47.0185 35.3263 47.0751 35.719 47.0751 36.1501C47.0751 36.5813 47.0185 36.9663 46.8982 37.3128C46.7779 37.6593 46.6081 37.9519 46.3745 38.1905C46.1481 38.4369 45.8651 38.6217 45.5325 38.7449C45.1999 38.8681 44.8249 38.9374 44.3933 38.9374H41.2939V33.3398H44.3933V33.3629ZM42.1572 38.0904H44.3933C44.9806 38.0904 45.4334 37.9211 45.7519 37.5746C46.0632 37.2281 46.2259 36.7584 46.2259 36.1655C46.2259 35.565 46.0703 35.0953 45.7519 34.7488C45.4334 34.4023 44.9876 34.2252 44.3933 34.2252H42.1572V38.0904Z" fill="#0132C5"/>
<path d="M55.4929 33.3626V34.2019H51.6365V35.7572H55.1603V36.5888H51.6365V38.1133H55.4929V38.9525H50.7803V33.3549H55.4929V33.3626Z" fill="#0132C5"/>
<path d="M59.0604 33.3627H59.9449L62.7258 38.9604H61.8059L61.1832 37.6668H57.8434L57.2207 38.9604H56.3008L59.0746 33.3627H59.0604ZM60.8082 36.8661L59.5062 34.2559L58.1972 36.8661H60.8011H60.8082Z" fill="#0132C5"/>
<path d="M68.0113 34.8871C67.898 34.6253 67.7282 34.4328 67.5089 34.3019C67.2895 34.171 67.0065 34.1017 66.6597 34.1017H65.4356C65.0818 34.1017 64.8129 34.1633 64.6289 34.2942C64.4379 34.4174 64.3459 34.5945 64.3459 34.8255C64.3459 34.9949 64.4096 35.1489 64.5298 35.2798C64.6501 35.4107 64.8766 35.5031 65.2021 35.5647L67.2754 35.8342C67.5442 35.8803 67.7636 35.9573 67.9476 36.0574C68.1316 36.1575 68.2731 36.2807 68.3792 36.427C68.4854 36.5733 68.5632 36.7273 68.6127 36.9044C68.6623 37.0815 68.6835 37.2663 68.6835 37.4588C68.6835 37.9361 68.5137 38.3134 68.1811 38.606C67.8485 38.8909 67.3673 39.0372 66.7517 39.0372H65.4993C64.9403 39.0372 64.4803 38.9294 64.1124 38.7061C63.7444 38.4828 63.4967 38.1748 63.3481 37.7591L64.0841 37.2663C64.2043 37.6051 64.3812 37.8514 64.6218 38.0054C64.8624 38.1594 65.1596 38.2287 65.5134 38.2287H66.7659C67.1197 38.2287 67.3956 38.1594 67.5725 38.0208C67.7565 37.8823 67.8485 37.6898 67.8485 37.4434C67.8485 37.2201 67.7848 37.0507 67.6504 36.9198C67.5159 36.7889 67.3107 36.6965 67.0135 36.6349L64.8695 36.3423C64.6218 36.2961 64.4096 36.2191 64.2397 36.1267C64.0699 36.0343 63.9284 35.9188 63.8222 35.788C63.7161 35.6571 63.6383 35.5108 63.5887 35.3568C63.5392 35.1951 63.518 35.0257 63.518 34.8486C63.518 34.3635 63.6878 33.9862 64.0204 33.7014C64.3529 33.4242 64.8412 33.2856 65.478 33.2856H66.688C67.1763 33.2856 67.5796 33.378 67.9051 33.5628C68.2306 33.7476 68.4641 34.0016 68.6056 34.325L68.0183 34.8948L68.0113 34.8871Z" fill="#0132C5"/>
<path d="M72.3081 36.1654L74.3743 33.3627H75.3932L72.7397 36.9508V38.9527H71.8764V36.9584L69.23 33.3627H70.2489L72.3081 36.1654Z" fill="#0132C5"/>
<path d="M78.5693 36.1575C78.5693 35.711 78.633 35.3183 78.7533 34.9641C78.8736 34.6099 79.0576 34.3096 79.2911 34.0632C79.5246 33.8169 79.8147 33.6244 80.1473 33.4858C80.487 33.3472 80.862 33.2856 81.2936 33.2856H82.348C82.7513 33.2856 83.1122 33.3395 83.4306 33.4319C83.749 33.5243 84.0391 33.7014 84.2868 33.9478L83.7985 34.633C83.6075 34.4559 83.3952 34.325 83.1546 34.2557C82.914 34.1787 82.6451 34.1402 82.348 34.1402H81.2936C81.0035 34.1402 80.7417 34.1864 80.5082 34.2788C80.2747 34.3712 80.0836 34.5098 79.9209 34.6792C79.7581 34.8563 79.6378 35.0642 79.5458 35.3106C79.4538 35.557 79.4185 35.8342 79.4185 36.1344C79.4185 36.4501 79.4609 36.7273 79.5458 36.9737C79.6307 37.2201 79.7581 37.4357 79.9209 37.6051C80.0836 37.7822 80.2747 37.913 80.5082 38.0054C80.7417 38.0978 80.9964 38.144 81.2936 38.144H82.348C82.9636 38.144 83.4518 37.9823 83.7985 37.6513L84.2868 38.3365C84.0391 38.5752 83.7561 38.7446 83.4447 38.8447C83.1334 38.9448 82.7654 38.9987 82.348 38.9987H81.2936C80.8691 38.9987 80.487 38.9294 80.1473 38.7985C79.8077 38.6676 79.5246 38.4751 79.2911 38.221C79.0576 37.9669 78.8736 37.6744 78.7533 37.3125C78.633 36.9506 78.5693 36.5579 78.5693 36.1267V36.1575Z" fill="#0132C5"/>
<path d="M87.5668 33.3627H88.4513L91.2322 38.9604H90.3123L89.6896 37.6668H86.3497L85.727 38.9604H84.8071L87.5809 33.3627H87.5668ZM89.3146 36.8661L88.0126 34.2559L86.7035 36.8661H89.3146Z" fill="#0132C5"/>
<path d="M97.6913 38.9604H96.736L95.5755 37.1124H93.1414V38.9604H92.2852V33.3627H95.5118C95.8586 33.3627 96.1628 33.4089 96.4176 33.5013C96.6723 33.5937 96.8917 33.7246 97.0615 33.8863C97.2313 34.048 97.3587 34.2482 97.4436 34.4792C97.5285 34.7102 97.571 34.9719 97.571 35.2568C97.571 35.688 97.4719 36.0422 97.2879 36.3425C97.0969 36.6428 96.8068 36.8507 96.4105 36.9739L97.7054 38.9527L97.6913 38.9604ZM93.1343 34.202V36.304H95.5048C95.9081 36.304 96.2053 36.2193 96.4105 36.0422C96.6157 35.8651 96.7148 35.611 96.7148 35.2722C96.7148 34.9181 96.6157 34.6563 96.4105 34.4792C96.2053 34.3021 95.9081 34.2097 95.5048 34.2097H93.1343V34.202Z" fill="#0132C5"/>
<path d="M101.318 33.2933H102.408C102.832 33.2933 103.214 33.3472 103.54 33.4396C103.872 33.5397 104.163 33.7091 104.41 33.9555L103.929 34.6407C103.738 34.4636 103.519 34.3327 103.271 34.2634C103.023 34.1864 102.733 34.1479 102.408 34.1479H101.318C101.014 34.1479 100.738 34.1941 100.497 34.2865C100.257 34.3789 100.058 34.5175 99.8886 34.6869C99.7188 34.8563 99.5985 35.0719 99.5136 35.3183C99.4287 35.5647 99.3862 35.8419 99.3862 36.1498C99.3862 36.4578 99.4287 36.735 99.5136 36.9814C99.5985 37.2278 99.7259 37.4434 99.8815 37.6128C100.044 37.7899 100.242 37.9207 100.469 38.0208C100.702 38.1209 100.964 38.1671 101.254 38.1671H102.302C102.507 38.1671 102.691 38.1517 102.861 38.1132C103.03 38.0747 103.186 38.0208 103.321 37.9515C103.455 37.8822 103.561 37.7899 103.653 37.6744C103.745 37.5589 103.795 37.428 103.823 37.2817V36.8351H102.245V36.0805H104.538V38.9525H104.021L103.979 38.2287C103.83 38.5136 103.604 38.7215 103.306 38.8447C103.009 38.9679 102.662 39.0295 102.259 39.0295H101.205C100.787 39.0295 100.412 38.9602 100.08 38.8293C99.7471 38.6984 99.4641 38.4982 99.2376 38.2518C99.0041 37.9977 98.8272 37.6975 98.7069 37.3433C98.5866 36.9891 98.5229 36.5964 98.5229 36.1575C98.5229 35.7187 98.5866 35.326 98.714 34.9718C98.8414 34.6176 99.0254 34.3173 99.2589 34.0632C99.4994 33.8092 99.7896 33.6167 100.129 33.4858C100.476 33.3472 100.865 33.2856 101.304 33.2856L101.318 33.2933Z" fill="#0132C5"/>
<path d="M105.555 36.1576C105.555 35.7111 105.618 35.3184 105.739 34.9719C105.859 34.6254 106.043 34.3174 106.276 34.0711C106.51 33.817 106.8 33.6245 107.133 33.4936C107.472 33.355 107.847 33.2934 108.279 33.2934H109.404C109.829 33.2934 110.211 33.3627 110.55 33.4936C110.89 33.6245 111.18 33.8247 111.414 34.0711C111.647 34.3251 111.831 34.6254 111.951 34.9719C112.079 35.3261 112.135 35.7188 112.135 36.15C112.135 36.5965 112.072 36.9892 111.951 37.3434C111.831 37.6976 111.647 37.9979 111.414 38.2519C111.18 38.506 110.89 38.6908 110.55 38.8294C110.211 38.968 109.829 39.0296 109.404 39.0296H108.279C107.854 39.0296 107.472 38.9603 107.133 38.8294C106.793 38.6985 106.51 38.506 106.276 38.2519C106.043 37.9979 105.859 37.7053 105.739 37.3434C105.618 36.9815 105.555 36.5888 105.555 36.1576ZM106.411 36.1576C106.411 36.4656 106.453 36.7428 106.538 36.9969C106.623 37.251 106.743 37.4589 106.899 37.6283C107.055 37.7977 107.253 37.9363 107.486 38.0287C107.72 38.121 107.982 38.1672 108.279 38.1672H109.404C110.006 38.1672 110.465 37.9902 110.791 37.6283C111.116 37.2664 111.279 36.7736 111.279 36.1576C111.279 35.842 111.237 35.5648 111.152 35.3184C111.067 35.072 110.947 34.8641 110.791 34.687C110.635 34.5176 110.437 34.379 110.204 34.2866C109.97 34.1942 109.701 34.1481 109.404 34.1481H108.279C107.982 34.1481 107.72 34.1942 107.486 34.2866C107.253 34.379 107.055 34.5176 106.899 34.687C106.743 34.8564 106.616 35.072 106.538 35.3184C106.46 35.5648 106.411 35.842 106.411 36.15V36.1576Z" fill="#0132C5"/>
<path d="M168.556 10.7525C167.656 10.7525 166.92 11.5301 166.92 12.4943H239.644L237.758 10.7525H168.556Z" fill="#0132C5"/>
<path d="M168.556 15.3402C167.656 15.3402 166.92 14.5626 166.92 13.5984H239.644L237.758 15.3402H168.556Z" fill="#0132C5"/>
<path d="M260.943 12.8752L260.307 11.8954C260.064 11.6 259.771 11.39 259.456 11.2656L252.868 9.15839L248.051 5.8615L245.507 4.11975L243.435 2.70457L241.391 1.30494C241.07 1.07945 240.67 0.962814 240.255 0.962814H199.173C198.401 0.962814 197.772 1.74038 197.772 2.70457H239.583L241.656 4.11975H188.311C187.539 4.11975 186.911 4.89732 186.911 5.8615H244.2L246.265 7.27668H177.442C176.67 7.27668 176.042 8.05425 176.042 9.01843H239.019L243.735 13.054L239.019 17.0896H176.049C176.049 18.0538 176.677 18.8314 177.449 18.8314H246.272L244.207 20.2465H186.911C186.911 21.2107 187.539 21.9883 188.311 21.9883H241.656L239.583 23.4035H197.772C197.772 24.3599 198.401 25.1452 199.173 25.1452H240.255C240.67 25.1452 241.07 25.0286 241.391 24.8031L243.435 23.4035L245.507 21.9883L248.051 20.2465L252.868 16.9496L259.456 14.8347C259.778 14.7102 260.064 14.4925 260.307 14.2048L260.943 13.2251C260.978 13.1784 261 13.1162 261 13.054C261 12.9918 260.978 12.9296 260.943 12.883V12.8752Z" fill="white"/>
</svg>
