<svg width="209" height="39" viewBox="0 0 209 39" fill="none" xmlns="http://www.w3.org/2000/svg">
<path opacity="0.967" fill-rule="evenodd" clip-rule="evenodd" d="M4.39599 0C10.5626 0 16.7292 0 22.8958 0C25.3588 1.1356 26.519 3.08937 26.376 5.86132C26.1116 9.59244 25.7759 13.3168 25.3685 17.0345C24.8588 19.679 23.3629 21.4803 20.881 22.4379C15.0196 22.56 9.15832 22.56 3.29699 22.4379C1.53879 21.7578 0.43979 20.5062 0 18.683C0 17.584 0 16.485 0 15.386C0.693041 12.6476 2.40259 10.9075 5.12866 10.1657C9.52872 9.64625 13.9247 9.09675 18.3166 8.51723C19.5891 8.0216 20.1996 7.07524 20.1483 5.67816C20.2613 4.41975 19.7118 3.65657 18.4998 3.38858C13.7379 3.29699 8.97554 3.26648 4.21283 3.29699C4.24964 2.19635 4.31069 1.09734 4.39599 0ZM19.5988 11.1731C19.6983 11.1841 19.7593 11.2452 19.782 11.3563C19.5677 13.4985 19.2929 15.6354 18.9577 17.7671C18.5711 18.5811 17.93 19.039 17.0345 19.1409C13.7985 19.2631 10.5626 19.2631 7.32665 19.1409C6.89663 19.0775 6.56082 18.8638 6.31924 18.4998C5.85619 17.2346 5.79513 15.9524 6.13607 14.6533C6.48257 14.0016 7.00155 13.5437 7.69299 13.2796C11.0533 12.8061 14.4114 12.3177 17.7671 11.8142C18.4381 11.7095 19.0487 11.4958 19.5988 11.1731Z" fill="#0B0C0B"/>
<path opacity="0.964" fill-rule="evenodd" clip-rule="evenodd" d="M29.49 0C36.4503 0 43.4106 0 50.3709 0C52.5462 1.01788 53.5842 2.75795 53.4848 5.22024C53.5264 7.51819 52.6715 9.4109 50.9204 10.8984C52.4523 12.5985 52.9714 14.5828 52.4774 16.8513C52.0742 19.4495 50.7005 21.3116 48.3561 22.4379C41.335 22.5295 34.3137 22.56 27.292 22.5295C28.0248 15.0177 28.7575 7.50784 29.49 0ZM35.3513 3.48016C39.1984 3.44964 43.0448 3.48016 46.8908 3.57174C47.2265 3.66333 47.4403 3.87703 47.5319 4.21283C47.9878 5.69713 47.8046 7.1014 46.9824 8.42565C46.6932 8.70795 46.3572 8.92163 45.975 9.06673C42.251 9.15832 38.5267 9.18883 34.8018 9.15832C34.9951 7.26652 35.1782 5.37381 35.3513 3.48016ZM34.4355 12.6385C38.0994 12.608 41.7627 12.6385 45.4255 12.7301C45.8555 12.7934 46.1913 13.0071 46.4329 13.3711C47.2877 14.8365 47.2877 16.3018 46.4329 17.7671C46.0182 18.3045 45.4991 18.7013 44.876 18.9577C41.2211 19.2213 37.5577 19.3129 33.886 19.2325C34.0911 17.0364 34.2743 14.8384 34.4355 12.6385Z" fill="#0B0C0B"/>
<path opacity="0.964" fill-rule="evenodd" clip-rule="evenodd" d="M56.965 0C59.0409 0 61.1169 0 63.1927 0C62.7591 4.9465 62.3012 9.89199 61.8189 14.8365C61.6968 15.8134 61.6968 16.7903 61.8189 17.7671C62.0481 18.2948 62.4448 18.6306 63.0095 18.7745C66.1233 18.8967 69.2372 18.8967 72.351 18.7745C72.8089 18.5608 73.1447 18.225 73.3584 17.7671C74.0757 11.8617 74.6558 5.93933 75.0985 0C77.1743 0 79.2503 0 81.3262 0C80.8459 5.80256 80.3268 11.6028 79.7692 17.4008C79.482 19.7003 78.2915 21.3184 76.1975 22.2547C70.092 22.3769 63.9863 22.3769 57.8809 22.2547C56.047 21.3997 55.1922 19.9344 55.3165 17.8587C55.8723 11.9051 56.4218 5.95221 56.965 0Z" fill="#0B0C0B"/>
<path opacity="0.964" fill-rule="evenodd" clip-rule="evenodd" d="M95.063 0C101.779 0 108.495 0 115.211 0C115.062 1.15667 114.94 2.31672 114.845 3.48016C109.411 3.44964 103.977 3.48016 98.5432 3.57174C97.8411 3.78544 97.3832 4.24336 97.1695 4.94549C97.0473 5.73921 97.0473 6.53294 97.1695 7.32665C97.4557 7.91799 97.9137 8.31485 98.5432 8.51723C102.759 8.8556 106.972 9.22193 111.182 9.61623C113.103 10.3184 114.233 11.6922 114.57 13.7375C115.084 17.2072 113.954 19.9853 111.182 22.0715C110.862 22.1578 110.557 22.28 110.266 22.4379C103.183 22.56 96.101 22.56 89.0186 22.4379C89.2184 21.3863 89.3406 20.3179 89.3849 19.2325C94.6361 19.2631 99.8867 19.2325 105.137 19.1409C107.491 19.1072 108.559 17.9166 108.343 15.5691C108.068 14.8059 107.549 14.287 106.786 14.0122C102.636 13.6273 98.4842 13.2609 94.3304 12.9132C92.1632 12.2188 90.9726 10.7229 90.7586 8.42565C90.3187 4.60345 91.7534 1.7949 95.063 0Z" fill="#0B0C0B"/>
<path opacity="0.966" fill-rule="evenodd" clip-rule="evenodd" d="M120.89 0C127.056 0 133.223 0 139.39 0C141.674 1.11268 142.835 2.97488 142.87 5.58657C142.517 9.59066 142.12 13.5898 141.679 17.584C141.081 19.9525 139.646 21.5706 137.375 22.4379C131.513 22.56 125.652 22.56 119.791 22.4379C117.779 21.7076 116.65 20.2728 116.402 18.1335C116.038 15.4069 116.862 13.1173 118.875 11.2647C119.641 10.6987 120.496 10.3324 121.439 10.1657C125.9 9.64299 130.357 9.09349 134.81 8.51723C135.851 8.12006 136.431 7.35686 136.551 6.22765C136.809 4.72644 136.229 3.78008 134.81 3.38858C130.049 3.29699 125.286 3.26648 120.523 3.29699C120.626 2.19301 120.748 1.09401 120.89 0ZM135.909 11.1731C135.965 13.2283 135.812 15.3042 135.452 17.4008C135.252 18.0753 134.856 18.5943 134.261 18.9577C130.729 19.2537 127.188 19.3149 123.637 19.1409C122.924 18.97 122.527 18.5121 122.447 17.7671C122.325 16.7903 122.325 15.8134 122.447 14.8365C122.696 14.2439 123.093 13.786 123.637 13.4627C126.794 12.8722 129.969 12.3837 133.162 11.9974C134.152 11.893 135.068 11.6183 135.909 11.1731Z" fill="#0B0C0B"/>
<path opacity="0.962" fill-rule="evenodd" clip-rule="evenodd" d="M146.35 0C148.426 0 150.502 0 152.577 0C152.421 2.51513 152.177 5.01841 151.845 7.50982C151.91 7.98873 152.154 8.32452 152.577 8.51723C156.558 8.56422 160.526 8.41158 164.483 8.05932C164.61 7.9631 164.702 7.841 164.758 7.69299C165.021 5.1228 165.296 2.55847 165.582 0C167.658 0 169.734 0 171.81 0C171.4 3.71677 171.033 7.44115 170.711 11.1731C165.64 11.5814 160.572 12.0393 155.508 12.5469C153.332 12.6497 151.898 13.7182 151.204 15.7523C150.951 17.9476 150.738 20.1455 150.563 22.3463C148.487 22.3463 146.411 22.3463 144.335 22.3463C145.029 14.8996 145.7 7.4508 146.35 0Z" fill="#0B0C0B"/>
<path opacity="0.952" fill-rule="evenodd" clip-rule="evenodd" d="M176.572 0C178.647 0 180.723 0 182.799 0C182.425 3.4736 182.089 6.95376 181.792 10.4405C180.768 10.6802 179.7 10.8023 178.586 10.8068C177.548 10.7458 176.511 10.6847 175.473 10.6236C175.863 7.08652 176.229 3.54531 176.572 0Z" fill="#0B0C0B"/>
<path opacity="0.953" fill-rule="evenodd" clip-rule="evenodd" d="M184.448 0C186.34 0 188.234 0 190.126 0C191.94 3.0782 193.803 6.13098 195.713 9.15832C198.043 6.12807 200.332 3.07529 202.582 0C204.413 0 206.245 0 208.077 0C208.077 0.122111 208.077 0.244222 208.077 0.366333C204.875 4.56663 201.67 8.77945 198.46 13.0048C198.103 16.1124 197.829 19.2262 197.636 22.3463C195.561 22.3463 193.484 22.3463 191.409 22.3463C191.672 19.1711 191.887 15.9962 192.05 12.8216C189.56 8.51247 187.025 4.2386 184.448 0Z" fill="#0B0C0B"/>
<path opacity="0.958" fill-rule="evenodd" clip-rule="evenodd" d="M179.869 11.1738C180.48 11.1738 181.09 11.1738 181.701 11.1738C181.4 14.8827 181.034 18.5765 180.602 22.2554C178.526 22.3776 176.45 22.3776 174.374 22.2554C174.789 18.6965 175.156 15.1247 175.473 11.5402C176.972 11.5032 178.438 11.381 179.869 11.1738Z" fill="#0B0C0B"/>
<path opacity="0.956" fill-rule="evenodd" clip-rule="evenodd" d="M169.795 12.4551C170.039 12.4551 170.283 12.4551 170.527 12.4551C170.28 15.6313 170.005 18.8062 169.703 21.9797C168.679 22.2195 167.611 22.3415 166.498 22.3461C165.46 22.2851 164.422 22.2239 163.384 22.1629C163.675 19.6048 163.949 17.0404 164.208 14.4699C164.361 14.073 164.635 13.7983 165.032 13.6457C166.643 13.243 168.23 12.8462 169.795 12.4551Z" fill="#0B0C0B"/>
<path opacity="0.877" fill-rule="evenodd" clip-rule="evenodd" d="M163.567 38.0982C162.529 38.0982 161.491 38.0982 160.453 38.0982C157.913 36.9283 157.089 34.9745 157.981 32.2369C158.926 30.2365 160.514 29.1985 162.743 29.123C163.686 29.1743 164.571 29.4187 165.399 29.8557C165.643 30.5274 165.643 31.1989 165.399 31.8705C163.656 30.8336 161.977 30.8948 160.362 32.0537C159.3 33.7326 159.575 35.1064 161.186 36.175C162.636 36.4832 163.948 36.2085 165.124 35.3507C165.246 36.0224 165.246 36.6939 165.124 37.3655C164.623 37.6932 164.103 37.9374 163.567 38.0982Z" fill="#C50510"/>
<path opacity="0.885" fill-rule="evenodd" clip-rule="evenodd" d="M188.111 38.0982C187.012 38.0982 185.913 38.0982 184.814 38.0982C182.607 37.2046 181.722 35.5561 182.158 33.1528C182.781 30.4569 184.489 29.1138 187.286 29.1231C188.145 29.2101 188.97 29.4239 189.759 29.7642C189.917 29.8904 190.037 30.043 190.125 30.2221C190.017 30.7721 189.896 31.3216 189.759 31.8706C188.343 31.0099 186.878 30.9183 185.363 31.5958C183.771 33.0117 183.711 34.477 185.18 35.9918C185.951 36.2728 186.744 36.3338 187.561 36.175C187.869 35.7052 187.991 35.1863 187.927 34.6181C187.501 34.6181 187.072 34.6181 186.645 34.6181C186.645 34.1296 186.645 33.6413 186.645 33.1528C187.744 33.1528 188.843 33.1528 189.942 33.1528C189.902 34.5597 189.81 35.9638 189.667 37.3656C189.14 37.6308 188.622 37.875 188.111 38.0982Z" fill="#C50510"/>
<path opacity="0.889" fill-rule="evenodd" clip-rule="evenodd" d="M195.987 38.0982C195.071 38.0982 194.156 38.0982 193.24 38.0982C190.688 37.0236 189.804 35.1307 190.584 32.42C191.448 30.3673 193.005 29.2683 195.255 29.123C198.475 29.4564 199.848 31.2271 199.376 34.4349C198.903 36.2803 197.775 37.5013 195.987 38.0982ZM194.339 31.1379C197.315 31.2355 198.139 32.6398 196.811 35.3507C195.463 36.5578 194.119 36.5578 192.782 35.3507C192.06 33.4943 192.58 32.0902 194.339 31.1379Z" fill="#C50510"/>
<path opacity="0.872" fill-rule="evenodd" clip-rule="evenodd" d="M173.824 38.0979C173.152 38.0979 172.481 38.0979 171.809 38.0979C171.683 37.473 171.5 36.8623 171.259 36.2663C170.227 36.0532 169.189 36.0227 168.146 36.1747C167.765 36.7835 167.459 37.4246 167.23 38.0979C166.558 38.0979 165.887 38.0979 165.215 38.0979C165.312 37.5966 165.465 37.1081 165.673 36.6326C166.883 34.274 168.043 31.8928 169.153 29.4891C169.836 29.3133 170.538 29.2523 171.259 29.3059C172.152 32.2269 173.006 35.1576 173.824 38.0979ZM169.977 31.8703C170.332 32.6753 170.576 33.5301 170.71 34.4346C170.087 34.4932 169.477 34.4322 168.878 34.2514C169.246 33.4523 169.612 32.6586 169.977 31.8703Z" fill="#C50510"/>
<path opacity="0.873" fill-rule="evenodd" clip-rule="evenodd" d="M181.334 38.0983C180.601 38.0983 179.868 38.0983 179.136 38.0983C178.843 37.1598 178.477 36.2439 178.037 35.3508C177.626 35.1724 177.199 35.1112 176.755 35.1676C176.613 36.1379 176.552 37.1147 176.571 38.0983C175.9 38.0983 175.228 38.0983 174.557 38.0983C174.719 35.1664 174.903 32.2357 175.106 29.3063C176.573 29.2759 178.038 29.3063 179.502 29.3979C181.61 29.9185 182.312 31.2312 181.609 33.336C181.185 33.9732 180.666 34.5227 180.052 34.9845C180.532 36.0054 180.959 37.0434 181.334 38.0983ZM177.121 31.138C177.795 31.1078 178.467 31.1382 179.136 31.2296C179.577 31.3684 179.76 31.6737 179.685 32.1454C179.736 32.7059 179.492 33.0722 178.953 33.2444C178.284 33.3358 177.612 33.3662 176.938 33.336C176.902 32.5912 176.963 31.8586 177.121 31.138Z" fill="#C50510"/>
</svg>
