<svg width="145" height="93" viewBox="0 0 145 93" fill="none" xmlns="http://www.w3.org/2000/svg">
<path d="M125.258 35.4932L124.001 20.0359L122.802 34.6409C120.216 33.7885 117.587 33.0807 114.929 32.474C111.361 31.6505 107.735 31.0727 104.095 30.6682C100.44 30.3793 96.7706 30.0759 93.1013 30.0759C89.432 30.0759 85.7627 30.3793 82.1079 30.6682C78.453 31.0582 74.8271 31.6505 71.2734 32.4884C68.6008 33.0518 65.9717 33.7885 63.3858 34.6409L62.1868 20.0215L60.93 35.4787C60.93 35.4787 60.8144 35.5221 60.7567 35.5365C59.052 36.1721 57.3618 36.8511 55.7005 37.6023C54.0537 38.3824 52.4502 39.2058 50.8467 40.0437C51.7279 39.7836 52.5802 39.5092 53.447 39.2347C54.3137 38.9602 55.1516 38.6569 56.0184 38.4113C57.6074 37.949 59.182 37.5156 60.7855 37.1256L60.54 40.0437H63.8048L63.5158 36.4611C64.4982 36.2444 65.4661 36.0277 66.4628 35.8254L69.092 35.3198L71.7501 34.8864C75.2749 34.323 78.8286 33.9041 82.3823 33.6296C84.1592 33.5285 85.9505 33.4563 87.7274 33.3696C89.5042 33.254 91.2955 33.254 93.0724 33.2251C94.8493 33.254 96.6406 33.2396 98.4174 33.3696C100.194 33.4563 101.986 33.5285 103.762 33.6441C107.316 33.9186 110.87 34.3375 114.409 34.8864C117.168 35.3198 119.913 35.8543 122.629 36.4755L122.34 40.0437H125.605L125.359 37.14C128.696 37.9634 132.004 38.9458 135.298 40.0437C132.091 38.2524 128.711 36.7355 125.229 35.4643L125.258 35.4932Z" fill="#D90E15"/>
<path d="M140.961 31.9835C139.733 29.311 138.519 26.6096 137.263 23.9515L133.535 15.934L129.736 7.94531L129.101 6.58739L127.8 7.51193C122.802 11.0657 117.24 13.8682 111.375 15.6595L110.277 15.9917L109.165 16.2807L108.053 16.5696L106.926 16.8152C106.55 16.9018 106.175 16.9885 105.799 17.0608L104.672 17.263C104.297 17.3352 103.921 17.4075 103.546 17.4652L102.404 17.6241C99.3706 18.0431 96.3081 18.1875 93.2455 18.1153C87.1348 17.8986 81.0675 16.6852 75.3902 14.5038C69.7129 12.3369 64.4112 9.21656 59.7741 5.34503L57.7083 3.61151L56.5382 5.96621C56.2348 6.57294 55.8736 7.20856 55.5269 7.84419L54.4724 9.75106L52.3921 13.5504C51.0053 16.0929 49.6041 18.6209 48.2461 21.1634L41.0665 34.4971L32.3122 26.8696C28.8307 23.8215 25.2914 20.8312 21.7955 17.8119C18.2851 14.7927 14.7314 11.8168 11.2065 8.82652C7.63837 5.89398 4.08465 2.9181 0.473145 0C3.7235 3.29369 7.01719 6.5296 10.3109 9.77996C13.619 13.0014 16.9272 16.2373 20.2642 19.4299C23.6012 22.6225 26.9238 25.8295 30.2897 29.0076L40.3731 38.5131L42.0055 40.0444L43.1322 38.0653L51.7565 22.9692C53.2011 20.4556 54.6024 17.9275 56.0325 15.3995L58.1706 11.6146L59.0518 10.0255C63.53 13.4781 68.5572 16.2518 73.8734 18.2598C80.0129 20.5567 86.5859 21.8135 93.1588 21.8713C99.7318 21.9146 106.305 20.9034 112.459 18.7365C118.122 16.7574 123.467 13.9549 128.19 10.3867L131.672 16.8152L135.933 24.5871C137.349 27.173 138.808 29.7444 140.238 32.3302C141.669 34.916 143.142 37.473 144.616 40.0444C143.417 37.343 142.217 34.656 140.99 31.969H140.975L140.961 31.9835Z" fill="#D90E15"/>
<path d="M36.0884 67.4925C36.0884 65.4774 36.7445 63.884 38.0722 62.6968C39.3844 61.5252 41.0871 60.9473 43.1803 60.9473C44.3363 60.9473 45.3985 61.1347 46.3358 61.5096C47.273 61.8845 48.0072 62.3532 48.5227 62.9155C49.5537 64.0402 50.0848 65.1806 50.0848 66.0866H47.0543C47.0231 65.946 47.0075 65.7898 46.617 65.2118C46.4139 64.915 46.1952 64.6651 45.9296 64.4308C45.4141 63.9934 44.3831 63.556 43.1803 63.556C41.9775 63.556 40.9621 63.9153 40.2123 64.6495C39.4469 65.3836 39.072 66.3209 39.072 67.4769C39.072 68.6328 39.4469 69.6013 40.1967 70.3199C40.9465 71.0385 41.9306 71.4134 43.1803 71.4134C44.43 71.4134 45.3673 71.0228 45.9296 70.523C46.4764 70.0231 46.8513 69.492 46.9606 69.1483L47.07 68.8984H50.1004C50.1004 69.7888 49.5693 70.9135 48.5383 72.0382C48.0228 72.6006 47.3043 73.0848 46.3514 73.4597C45.3985 73.8346 44.3519 74.0221 43.1959 74.0221C41.1027 74.0221 39.4 73.4285 38.0879 72.2725C36.7757 71.1009 36.104 69.5076 36.104 67.4769L36.0884 67.4925Z" fill="#1D1D1B"/>
<path d="M62.0667 73.7884V67.415C62.0667 66.1185 61.723 65.15 61.0357 64.5251C60.3484 63.8847 59.4424 63.5722 58.3177 63.5722C57.1305 63.5722 56.1932 63.9159 55.5527 64.6345C54.9123 65.353 54.5842 66.2747 54.5842 67.415V73.7884H51.71V55.8086H54.5842V63.2286H54.7561C54.8185 63.088 54.8654 62.9474 55.3653 62.4319C55.5996 62.1664 55.8964 61.9477 56.2088 61.729C56.8493 61.3228 58.0365 60.9323 59.3799 60.9323C61.0045 60.9323 62.3323 61.4009 63.3632 62.3538C64.4099 63.3223 64.9097 64.7438 64.9097 66.6496V73.7572H62.0355L62.0667 73.7884Z" fill="#1D1D1B"/>
<path d="M66.8306 57.0426C66.8306 56.6052 66.9868 56.2459 67.2992 55.9647C67.6116 55.6992 68.0334 55.5586 68.5333 55.5586C69.0331 55.5586 69.4549 55.6992 69.7673 55.9647C70.0641 56.2459 70.2203 56.6052 70.2203 57.0426C70.2203 57.48 70.0641 57.8549 69.7673 58.1204C69.4549 58.4016 69.0487 58.5422 68.5333 58.5422C68.0178 58.5422 67.6116 58.4016 67.2992 58.1204C66.9868 57.8549 66.8306 57.4956 66.8306 57.0426ZM69.9704 61.1978V73.7883H67.0961V61.1978H69.9704Z" fill="#1D1D1B"/>
<path d="M82.5926 73.7897V67.4163C82.5926 66.1198 82.2489 65.1513 81.5616 64.5264C80.8743 63.886 79.9683 63.5735 78.8436 63.5735C77.6564 63.5735 76.7191 63.9172 76.0786 64.6358C75.4382 65.3543 75.1101 66.276 75.1101 67.4163V73.7897H72.2358V61.1992H75.1101V63.2299H75.282C75.3444 63.0893 75.3913 62.9487 75.8912 62.4332C76.1255 62.1677 76.4223 61.949 76.7347 61.7303C77.3752 61.3241 78.5624 60.9336 79.9058 60.9336C81.5304 60.9336 82.8582 61.4022 83.8891 62.3551C84.9358 63.3236 85.4356 64.7451 85.4356 66.6509V73.7585H82.5613L82.5926 73.7897Z" fill="#1D1D1B"/>
<path d="M96.5725 64.2102L93.6827 73.7859H89.8086L86.2158 61.1953H89.1369L91.73 71.0053H91.8394L94.7761 61.1953H98.5408L101.462 71.0053H101.571L104.164 61.1953H107.086L103.493 73.7859H99.6186L96.7288 64.2102H96.5882H96.5725Z" fill="#1D1D1B"/>
<path d="M109.053 67.305C110.147 66.6646 111.537 66.3365 113.208 66.3365C114.052 66.3365 114.849 66.4459 115.583 66.6333C116.317 66.8364 116.817 67.0551 117.129 67.2582L117.567 67.5393V65.7273C117.567 65.04 117.301 64.462 116.77 63.9934C116.223 63.5247 115.395 63.306 114.239 63.306C112.24 63.306 110.975 63.9465 110.975 65.1806H108.007C108.007 63.7591 108.616 62.6968 109.741 61.9939C110.881 61.2909 112.381 60.9473 114.224 60.9473C116.067 60.9473 117.614 61.3534 118.738 62.1657C119.847 62.978 120.425 64.1652 120.425 65.7273V69.9137C120.425 71.0853 120.691 71.4758 121.394 71.4758C121.659 71.4758 121.878 71.4446 121.987 71.3665L122.034 71.3353V73.8034C121.738 73.9596 121.3 74.0221 120.675 74.0221C119.988 74.0221 119.41 73.8815 118.941 73.6003C118.473 73.3347 118.16 73.0692 118.02 72.788L117.832 72.3662H117.676C117.614 72.4756 117.551 72.5537 117.02 72.9286C116.739 73.1161 116.442 73.2879 116.098 73.4285C115.442 73.7253 114.193 74.0065 112.834 74.0065C111.24 74.0065 109.944 73.694 108.913 73.0536C107.882 72.4287 107.366 71.4758 107.366 70.2105C107.366 68.9452 107.913 67.9299 109.006 67.2738L109.053 67.305ZM115.989 71.4134C116.583 71.2571 117.004 71.0697 117.239 70.9135L117.582 70.6479V69.4451C116.879 68.914 115.677 68.6484 113.99 68.6484C111.6 68.6484 110.397 69.1483 110.397 70.1481C110.397 71.1478 111.6 71.6945 113.99 71.6945C114.724 71.6945 115.395 71.6008 115.989 71.429V71.4134Z" fill="#1D1D1B"/>
<path d="M135.515 61.1979L129.298 67.2901L135.984 73.7884H132.391L125.94 67.4931V73.7884H123.065V55.8086H125.94V67.1651L132.001 61.1979H135.531H135.515Z" fill="#1D1D1B"/>
<path d="M136.062 57.0426C136.062 56.6052 136.219 56.2459 136.531 55.9647C136.844 55.6992 137.265 55.5586 137.765 55.5586C138.265 55.5586 138.687 55.6992 138.999 55.9647C139.296 56.2459 139.452 56.6052 139.452 57.0426C139.452 57.48 139.296 57.8549 138.999 58.1204C138.687 58.4016 138.281 58.5422 137.765 58.5422C137.25 58.5422 136.844 58.4016 136.531 58.1204C136.219 57.8549 136.062 57.4956 136.062 57.0426ZM139.202 61.1978V73.7883H136.328V61.1978H139.202Z" fill="#1D1D1B"/>
<path d="M144.359 55.8086V73.7884H141.484V55.8086H144.359Z" fill="#1D1D1B"/>
<path d="M37.181 83.0557C36.9466 82.962 36.7748 82.8214 36.6342 82.6495C36.4936 82.4777 36.4311 82.2746 36.4155 82.0403H37.056C37.0716 82.2278 37.1653 82.384 37.3216 82.4933C37.4778 82.6027 37.6964 82.6808 37.9464 82.6808C38.1963 82.6808 38.3682 82.6339 38.5087 82.5246C38.6493 82.4152 38.7118 82.2903 38.7118 82.1341C38.7118 81.9778 38.6337 81.8373 38.4931 81.7591C38.3525 81.681 38.1182 81.6029 37.8058 81.5248C37.5246 81.4467 37.3059 81.3686 37.1185 81.3061C36.931 81.2437 36.7904 81.1187 36.6655 80.9625C36.5405 80.8063 36.478 80.6188 36.478 80.3845C36.478 80.197 36.5249 80.0096 36.6498 79.8534C36.7592 79.6972 36.931 79.5566 37.1341 79.4785C37.3372 79.4004 37.5871 79.3379 37.8527 79.3379C38.2744 79.3379 38.6025 79.4472 38.8524 79.6503C39.118 79.8534 39.2429 80.1502 39.2586 80.5251H38.6337C38.6337 80.322 38.54 80.1658 38.3994 80.0565C38.2588 79.9315 38.0557 79.869 37.8214 79.869C37.6027 79.869 37.4153 79.9159 37.2903 80.0096C37.1653 80.1033 37.0872 80.2283 37.0872 80.3845C37.0872 80.5095 37.1341 80.6032 37.2122 80.6969C37.2903 80.775 37.3996 80.8375 37.509 80.8844C37.6183 80.9312 37.8058 80.9937 38.0089 81.0406C38.2744 81.1187 38.4931 81.1812 38.6649 81.2593C38.8368 81.3374 38.9774 81.4311 39.1023 81.5717C39.2273 81.7123 39.2898 81.8997 39.2898 82.1184C39.2898 82.3215 39.2429 82.509 39.118 82.6652C39.0086 82.8214 38.8368 82.962 38.6337 83.0557C38.4306 83.1494 38.1807 83.1963 37.9151 83.1963C37.6183 83.1963 37.3684 83.1494 37.1341 83.0401L37.181 83.0557Z" fill="#1D1D1B"/>
<path d="M40.2265 78.6483C40.1484 78.5701 40.1016 78.4608 40.1016 78.3515C40.1016 78.2421 40.1484 78.1328 40.2265 78.0547C40.3046 77.9766 40.414 77.9297 40.5233 77.9297C40.6327 77.9297 40.7264 77.9766 40.8201 78.0547C40.9139 78.1328 40.9451 78.2421 40.9451 78.3515C40.9451 78.4608 40.8982 78.5701 40.8201 78.6483C40.742 78.7264 40.6483 78.7732 40.5233 78.7732C40.3984 78.7732 40.3046 78.7264 40.2265 78.6483ZM40.8358 79.3824V83.1471H40.2109V79.3824H40.8358Z" fill="#1D1D1B"/>
<path d="M42.368 82.63H44.2113V83.1455H41.6494V82.63L43.4771 79.8964H41.665V79.3965H44.1956V79.8964L42.368 82.63Z" fill="#1D1D1B"/>
<path d="M47.9748 79.7265C48.256 80.0076 48.3966 80.3982 48.3966 80.9293V83.1475H47.7718V81.023C47.7718 80.6481 47.678 80.3669 47.4906 80.1638C47.3031 79.9608 47.0376 79.867 46.7252 79.867C46.4127 79.867 46.1316 79.9764 45.9441 80.1795C45.7567 80.3825 45.6473 80.6793 45.6473 81.0699V83.1475H45.0225V79.3828H45.6473V79.9139C45.7723 79.7265 45.9441 79.5702 46.1472 79.4609C46.3503 79.3516 46.6002 79.3047 46.8501 79.3047C47.3031 79.3047 47.678 79.4453 47.9592 79.7265H47.9748Z" fill="#1D1D1B"/>
<path d="M49.4443 78.6483C49.3662 78.5701 49.3193 78.4608 49.3193 78.3515C49.3193 78.2421 49.3662 78.1328 49.4443 78.0547C49.5224 77.9766 49.6318 77.9297 49.7411 77.9297C49.8505 77.9297 49.9442 77.9766 50.0379 78.0547C50.1316 78.1328 50.1629 78.2421 50.1629 78.3515C50.1629 78.4608 50.116 78.5701 50.0379 78.6483C49.9598 78.7264 49.8661 78.7732 49.7411 78.7732C49.6161 78.7732 49.5224 78.7264 49.4443 78.6483ZM50.0535 79.3824V83.1471H49.4287V79.3824H50.0535Z" fill="#1D1D1B"/>
<path d="M54.0505 79.7265C54.3317 80.0076 54.4723 80.3982 54.4723 80.9293V83.1475H53.8474V81.023C53.8474 80.6481 53.7537 80.3669 53.5663 80.1638C53.3788 79.9608 53.1133 79.867 52.8008 79.867C52.4884 79.867 52.2072 79.9764 52.0198 80.1795C51.8323 80.3825 51.723 80.6793 51.723 81.0699V83.1475H51.0981V79.3828H51.723V79.9139C51.8479 79.7265 52.0198 79.5702 52.2228 79.4609C52.4259 79.3516 52.6759 79.3047 52.9258 79.3047C53.3788 79.3047 53.7537 79.4453 54.0349 79.7265H54.0505Z" fill="#1D1D1B"/>
<path d="M57.8953 79.5371C58.1453 79.6776 58.3171 79.8495 58.4421 80.0682V79.3808H59.0669V83.2236C59.0669 83.5673 58.9888 83.8797 58.8482 84.1453C58.7076 84.4108 58.4889 84.6139 58.2234 84.7701C57.9578 84.9263 57.6298 85.0044 57.2705 85.0044C56.7706 85.0044 56.3645 84.8951 56.0364 84.6608C55.7084 84.4264 55.5053 84.114 55.4584 83.7079H56.0833C56.1458 83.9422 56.2864 84.1296 56.5051 84.2546C56.7238 84.3796 56.9737 84.4577 57.2861 84.4577C57.6298 84.4577 57.911 84.3483 58.1296 84.1296C58.3483 83.9109 58.4577 83.6141 58.4577 83.2236V82.4269C58.3327 82.6456 58.1453 82.8331 57.9109 82.9737C57.6766 83.1143 57.3798 83.1924 57.0674 83.1924C56.755 83.1924 56.427 83.1143 56.1614 82.9424C55.8958 82.7706 55.6771 82.5519 55.5209 82.2551C55.3647 81.9583 55.2866 81.6147 55.2866 81.2397C55.2866 80.8648 55.3647 80.5212 55.5209 80.2244C55.6771 79.9276 55.8958 79.7089 56.1614 79.5527C56.427 79.3965 56.7394 79.3184 57.0674 79.3184C57.3955 79.3184 57.6766 79.3965 57.9266 79.5214H57.9109L57.8953 79.5371ZM58.2702 80.5212C58.1609 80.3181 58.0047 80.1463 57.8016 80.0369C57.6141 79.9276 57.3955 79.8651 57.1611 79.8651C56.9268 79.8651 56.7081 79.912 56.5207 80.0213C56.3332 80.1307 56.177 80.2869 56.0677 80.5056C55.9583 80.7243 55.8958 80.9586 55.8958 81.2397C55.8958 81.5209 55.9427 81.7709 56.0677 81.9896C56.177 82.1926 56.3332 82.3645 56.5207 82.4738C56.7081 82.5832 56.9268 82.6456 57.1611 82.6456C57.3955 82.6456 57.6141 82.5988 57.8016 82.4738C57.989 82.3645 58.1453 82.1926 58.2702 81.9896C58.3796 81.7865 58.4421 81.5209 58.4421 81.2397C58.4421 80.9586 58.3952 80.7086 58.2702 80.5056V80.5212Z" fill="#1D1D1B"/>
<path d="M61.9873 78.6483C61.9092 78.5701 61.8623 78.4608 61.8623 78.3515C61.8623 78.2421 61.9092 78.1328 61.9873 78.0547C62.0654 77.9766 62.1747 77.9297 62.2841 77.9297C62.3934 77.9297 62.4871 77.9766 62.5809 78.0547C62.6746 78.1328 62.7058 78.2421 62.7058 78.3515C62.7058 78.4608 62.659 78.5701 62.5809 78.6483C62.5028 78.7264 62.409 78.7732 62.2841 78.7732C62.1591 78.7732 62.0654 78.7264 61.9873 78.6483ZM62.5965 79.3824V83.1471H61.9717V79.3824H62.5965Z" fill="#1D1D1B"/>
<path d="M64.2205 83.0557C63.9862 82.962 63.8144 82.8214 63.6738 82.6495C63.5332 82.4777 63.4707 82.2746 63.4551 82.0403H64.0955C64.1112 82.2278 64.2049 82.384 64.3611 82.4933C64.5173 82.6027 64.736 82.6808 64.9859 82.6808C65.2359 82.6808 65.4077 82.6339 65.5483 82.5246C65.6889 82.4152 65.7514 82.2903 65.7514 82.1341C65.7514 81.9778 65.6733 81.8373 65.5327 81.7591C65.3921 81.681 65.1578 81.6029 64.8453 81.5248C64.5642 81.4467 64.3455 81.3686 64.158 81.3061C63.9706 81.2437 63.83 81.1187 63.705 80.9625C63.5801 80.8063 63.5176 80.6188 63.5176 80.3845C63.5176 80.197 63.5644 80.0096 63.6894 79.8534C63.7987 79.6972 63.9706 79.5566 64.1736 79.4785C64.3767 79.4004 64.6267 79.3379 64.8922 79.3379C65.314 79.3379 65.642 79.4472 65.892 79.6503C66.1575 79.8534 66.2825 80.1502 66.2981 80.5251H65.6733C65.6733 80.322 65.5795 80.1658 65.439 80.0565C65.2984 79.9315 65.0953 79.869 64.861 79.869C64.6423 79.869 64.4548 79.9159 64.3299 80.0096C64.2049 80.1033 64.1268 80.2283 64.1268 80.3845C64.1268 80.5095 64.1736 80.6032 64.2518 80.6969C64.3299 80.775 64.4392 80.8375 64.5485 80.8844C64.6579 80.9312 64.8454 80.9937 65.0484 81.0406C65.314 81.1187 65.5327 81.1812 65.7045 81.2593C65.8763 81.3374 66.0169 81.4311 66.1419 81.5717C66.2669 81.7123 66.3294 81.8997 66.3294 82.1184C66.3294 82.3215 66.2825 82.509 66.1575 82.6652C66.0482 82.8214 65.8763 82.962 65.6733 83.0557C65.4702 83.1494 65.2203 83.1963 64.9547 83.1963C64.6579 83.1963 64.408 83.1494 64.1736 83.0401L64.2205 83.0557Z" fill="#1D1D1B"/>
<path d="M69.8758 79.4938C70.1101 79.6187 70.2819 79.7906 70.4225 80.0405C70.5475 80.2748 70.61 80.5716 70.61 80.9309V83.1491H69.9851V81.0246C69.9851 80.6497 69.8914 80.3686 69.704 80.1655C69.5165 79.9624 69.251 79.8687 68.9385 79.8687C68.6261 79.8687 68.3449 79.978 68.1575 80.1811C67.97 80.3842 67.8607 80.681 67.8607 81.0715V83.1491H67.2358V78.0723H67.8607V79.9312C67.9857 79.7437 68.1575 79.5875 68.3762 79.4782C68.5949 79.3688 68.8448 79.3219 69.1104 79.3219C69.3915 79.3219 69.6571 79.3844 69.8758 79.5094V79.4938Z" fill="#1D1D1B"/>
<path d="M72.3289 82.96C72.0477 82.8038 71.8134 82.5695 71.6572 82.2727C71.501 81.9759 71.4229 81.6322 71.4229 81.2417C71.4229 80.8512 71.501 80.5231 71.6728 80.2263C71.8446 79.9295 72.0633 79.6952 72.3601 79.539C72.6569 79.3828 72.9693 79.3047 73.3286 79.3047C73.6879 79.3047 74.0159 79.3828 74.2971 79.539C74.5939 79.6952 74.8126 79.9295 74.9845 80.2107C75.1563 80.4919 75.2344 80.8355 75.2344 81.2417C75.2344 81.6478 75.1563 81.9759 74.9688 82.2727C74.797 82.5695 74.5627 82.8038 74.2659 82.96C73.9691 83.1162 73.641 83.1943 73.2974 83.1943C72.9537 83.1943 72.6257 83.1162 72.3445 82.96H72.3289ZM73.9222 82.4914C74.1253 82.382 74.2815 82.2258 74.3908 82.0227C74.5158 81.8197 74.5783 81.5541 74.5783 81.2573C74.5783 80.9605 74.5158 80.695 74.3908 80.4919C74.2659 80.2888 74.1097 80.117 73.9222 80.0233C73.7348 79.9295 73.5161 79.867 73.2974 79.867C73.0787 79.867 72.86 79.9139 72.6725 80.0233C72.4851 80.1326 72.3289 80.2888 72.2195 80.4919C72.1102 80.695 72.0477 80.9605 72.0477 81.2573C72.0477 81.5541 72.0946 81.8197 72.2195 82.0384C72.3445 82.2571 72.4851 82.4133 72.6725 82.507C72.86 82.6007 73.0631 82.6632 73.2974 82.6632C73.5317 82.6632 73.7348 82.6163 73.9222 82.507V82.4914Z" fill="#1D1D1B"/>
<path d="M78.9826 79.7265C79.2638 80.0076 79.4044 80.3982 79.4044 80.9293V83.1475H78.7796V81.023C78.7796 80.6481 78.6859 80.3669 78.4984 80.1638C78.3109 79.9608 78.0454 79.867 77.733 79.867C77.4205 79.867 77.1394 79.9764 76.9519 80.1795C76.7645 80.3825 76.6551 80.6793 76.6551 81.0699V83.1475H76.0303V79.3828H76.6551V79.9139C76.7801 79.7265 76.9519 79.5702 77.155 79.4609C77.3581 79.3516 77.608 79.3047 77.8579 79.3047C78.3109 79.3047 78.6859 79.4453 78.967 79.7265H78.9826Z" fill="#1D1D1B"/>
<path d="M80.436 80.2439C80.5922 79.9471 80.8109 79.7284 81.092 79.5722C81.3732 79.416 81.6856 79.3379 82.0449 79.3379C82.5135 79.3379 82.8885 79.4472 83.1853 79.6816C83.4821 79.9002 83.6851 80.2127 83.7789 80.6188H83.1072C83.0447 80.3845 82.9197 80.2127 82.7322 80.0721C82.5448 79.9315 82.3105 79.869 82.0449 79.869C81.6856 79.869 81.4045 79.994 81.1701 80.2439C80.9514 80.4938 80.8421 80.8375 80.8421 81.2905C80.8421 81.7435 80.9514 82.0872 81.1701 82.3371C81.3888 82.5871 81.67 82.712 82.0449 82.712C82.3261 82.712 82.5448 82.6495 82.7322 82.5246C82.9197 82.3996 83.0447 82.2122 83.1072 81.9778H83.7789C83.6695 82.3684 83.4821 82.6652 83.1696 82.8995C82.8728 83.1338 82.4823 83.2431 82.0293 83.2431C81.67 83.2431 81.3576 83.165 81.0764 83.0088C80.7952 82.8526 80.5766 82.6183 80.4203 82.3215C80.2641 82.0247 80.186 81.681 80.186 81.2905C80.186 80.9 80.2641 80.5563 80.4203 80.2752L80.436 80.2439Z" fill="#1D1D1B"/>
<path d="M87.2308 79.4938C87.4651 79.6187 87.6369 79.7906 87.7775 80.0405C87.9025 80.2748 87.965 80.5716 87.965 80.9309V83.1491H87.3401V81.0246C87.3401 80.6497 87.2464 80.3686 87.0589 80.1655C86.8715 79.9624 86.6059 79.8687 86.2935 79.8687C85.9811 79.8687 85.6999 79.978 85.5125 80.1811C85.325 80.3842 85.2157 80.681 85.2157 81.0715V83.1491H84.5908V78.0723H85.2157V79.9312C85.3406 79.7437 85.5125 79.5875 85.7311 79.4782C85.9498 79.3688 86.1998 79.3219 86.4653 79.3219C86.7465 79.3219 87.0121 79.3844 87.2308 79.5094V79.4938Z" fill="#1D1D1B"/>
<path d="M89.6053 78.0723V83.1491H88.9805V78.0723H89.6053Z" fill="#1D1D1B"/>
<path d="M90.6987 78.6483C90.6206 78.5701 90.5737 78.4608 90.5737 78.3515C90.5737 78.2421 90.6206 78.1328 90.6987 78.0547C90.7768 77.9766 90.8862 77.9297 90.9955 77.9297C91.1049 77.9297 91.1986 77.9766 91.2923 78.0547C91.386 78.1328 91.4173 78.2421 91.4173 78.3515C91.4173 78.4608 91.3704 78.5701 91.2923 78.6483C91.2142 78.7264 91.1205 78.7732 90.9955 78.7732C90.8705 78.7732 90.7768 78.7264 90.6987 78.6483ZM91.3079 79.3824V83.1471H90.6831V79.3824H91.3079Z" fill="#1D1D1B"/>
<path d="M39.2586 87.3336C39.4929 87.4586 39.6648 87.6304 39.8053 87.8804C39.9303 88.1147 39.9928 88.4115 39.9928 88.7708V90.9889H39.368V88.8645C39.368 88.4896 39.2742 88.2084 39.0868 88.0053C38.8993 87.8023 38.6338 87.7085 38.3214 87.7085C38.0089 87.7085 37.7278 87.8179 37.5403 88.0209C37.3528 88.224 37.2435 88.5208 37.2435 88.9113V90.9889H36.6187V85.9121H37.2435V87.771C37.3685 87.5836 37.5403 87.4274 37.759 87.318C37.9777 87.2087 38.2276 87.1618 38.4932 87.1618C38.7744 87.1618 39.0399 87.2243 39.2586 87.3492V87.3336Z" fill="#1D1D1B"/>
<path d="M41.0087 88.0642C41.1649 87.7674 41.3836 87.5487 41.6492 87.3925C41.9147 87.2363 42.2272 87.1582 42.5552 87.1582C42.8833 87.1582 43.1644 87.2363 43.4144 87.3613C43.6487 87.5019 43.8361 87.6737 43.9611 87.8924V87.2051H44.5859V90.9697H43.9611V90.2668C43.8361 90.4855 43.6487 90.6729 43.4144 90.8135C43.1644 90.9541 42.8833 91.0322 42.5552 91.0322C42.2272 91.0322 41.9147 90.9541 41.6492 90.7823C41.3836 90.6105 41.1649 90.3918 41.0087 90.095C40.8525 89.7982 40.7744 89.4545 40.7744 89.0796C40.7744 88.7047 40.8525 88.361 41.0087 88.0642ZM43.7893 88.3454C43.6799 88.1423 43.5237 87.9705 43.3206 87.8611C43.1332 87.7518 42.9145 87.6893 42.6802 87.6893C42.4459 87.6893 42.2272 87.7362 42.0397 87.8455C41.8523 87.9549 41.696 88.1111 41.5867 88.3298C41.4774 88.5329 41.4149 88.7828 41.4149 89.064C41.4149 89.3451 41.4617 89.5951 41.5867 89.8138C41.696 90.0169 41.8523 90.1887 42.0397 90.298C42.2272 90.4074 42.4459 90.4699 42.6802 90.4699C42.9145 90.4699 43.1332 90.423 43.3206 90.298C43.5081 90.1887 43.6643 90.0169 43.7893 89.8138C43.9142 89.6107 43.9611 89.3451 43.9611 89.064C43.9611 88.7828 43.9142 88.5329 43.7893 88.3298V88.3454Z" fill="#1D1D1B"/>
<path d="M50.9737 87.332C51.2081 87.457 51.3799 87.6288 51.5205 87.8787C51.6454 88.113 51.7235 88.4098 51.7235 88.7691V90.9873H51.0987V88.8629C51.0987 88.4879 51.005 88.2068 50.8175 88.0037C50.6301 87.8006 50.3801 87.7069 50.0677 87.7069C49.7553 87.7069 49.4897 87.8162 49.2867 88.0193C49.0836 88.2224 48.9899 88.5348 48.9899 88.9253V91.0029H48.365V88.8785C48.365 88.5036 48.2713 88.2224 48.0838 88.0193C47.8964 87.8162 47.6465 87.7225 47.334 87.7225C47.0216 87.7225 46.7561 87.8319 46.553 88.0349C46.3499 88.238 46.2562 88.5504 46.2562 88.941V91.0186H45.6313V87.2539H46.2562V87.8006C46.3811 87.5975 46.553 87.457 46.7561 87.3476C46.9591 87.2383 47.1934 87.1914 47.4434 87.1914C47.7558 87.1914 48.037 87.2695 48.2869 87.3945C48.5212 87.5351 48.7087 87.7381 48.8337 88.0193C48.943 87.7538 49.1148 87.5507 49.3648 87.3945C49.5991 87.2539 49.8803 87.1758 50.1771 87.1758C50.4739 87.1758 50.7238 87.2383 50.9581 87.3632L50.9737 87.332Z" fill="#1D1D1B"/>
<path d="M54.833 90.9714L53.3646 89.3155V90.9714H52.7397V85.8945H53.3646V88.8782L54.8173 87.2067H55.6921L53.9269 89.0812L55.7077 90.9714H54.8642H54.833Z" fill="#1D1D1B"/>
<path d="M56.9573 90.8018C56.6761 90.6456 56.4418 90.4113 56.2856 90.1145C56.1294 89.8177 56.0513 89.474 56.0513 89.0835C56.0513 88.693 56.1294 88.3649 56.3012 88.0681C56.473 87.7713 56.6917 87.537 56.9885 87.3808C57.2853 87.2246 57.5978 87.1465 57.957 87.1465C58.3163 87.1465 58.6444 87.2246 58.9255 87.3808C59.2223 87.537 59.441 87.7713 59.6129 88.0525C59.7847 88.3337 59.8628 88.6773 59.8628 89.0835C59.8628 89.4896 59.7847 89.8177 59.5972 90.1145C59.4254 90.4113 59.1911 90.6456 58.8943 90.8018C58.5975 90.958 58.2695 91.0361 57.9258 91.0361C57.5821 91.0361 57.2541 90.958 56.9729 90.8018H56.9573ZM58.5506 90.3332C58.7537 90.2238 58.9099 90.0676 59.0193 89.8645C59.1286 89.6615 59.2067 89.3959 59.2067 89.0991C59.2067 88.8023 59.1442 88.5368 59.0193 88.3337C58.8943 88.1306 58.7381 87.9588 58.5506 87.8651C58.3632 87.7713 58.1445 87.7088 57.9258 87.7088C57.7071 87.7088 57.4884 87.7557 57.3009 87.8651C57.1135 87.9744 56.9573 88.1306 56.8479 88.3337C56.7386 88.5368 56.6761 88.8023 56.6761 89.0991C56.6761 89.3959 56.723 89.6615 56.8479 89.8802C56.9729 90.0989 57.1135 90.2551 57.3009 90.3488C57.4884 90.4425 57.6915 90.505 57.9258 90.505C58.1601 90.505 58.3632 90.4581 58.5506 90.3488V90.3332Z" fill="#1D1D1B"/>
<path d="M61.7522 87.3222C61.9552 87.1973 62.2052 87.1348 62.502 87.1348V87.7752H62.3458C61.6428 87.7752 61.2992 88.1501 61.2992 88.9156V90.9619H60.6743V87.1973H61.2992V87.8065C61.4085 87.5878 61.5647 87.4316 61.7678 87.3066L61.7522 87.3222Z" fill="#1D1D1B"/>
<path d="M63.2524 86.4705C63.1743 86.3924 63.1274 86.2831 63.1274 86.1737C63.1274 86.0644 63.1743 85.955 63.2524 85.8769C63.3305 85.7988 63.4399 85.752 63.5492 85.752C63.6586 85.752 63.7523 85.7988 63.846 85.8769C63.9397 85.955 63.971 86.0644 63.971 86.1737C63.971 86.2831 63.9241 86.3924 63.846 86.4705C63.7679 86.5486 63.6742 86.5955 63.5492 86.5955C63.4242 86.5955 63.3305 86.5486 63.2524 86.4705ZM63.8616 87.2047V90.9694H63.2368V87.2047H63.8616Z" fill="#1D1D1B"/>
<path d="M67.8616 87.5565C68.1427 87.8377 68.2833 88.2282 68.2833 88.7594V90.9775H67.6585V88.8531C67.6585 88.4782 67.5648 88.197 67.3773 87.9939C67.1899 87.7908 66.9243 87.6971 66.6119 87.6971C66.2995 87.6971 66.0183 87.8065 65.8308 88.0095C65.6434 88.2126 65.534 88.5094 65.534 88.8999V90.9775H64.9092V87.2129H65.534V87.744C65.659 87.5565 65.8308 87.4003 66.0339 87.291C66.237 87.1816 66.4869 87.1348 66.7368 87.1348C67.1898 87.1348 67.5648 87.2754 67.8459 87.5565H67.8616Z" fill="#1D1D1B"/>
<path d="M71.719 87.3652C71.969 87.5058 72.1408 87.6776 72.2658 87.8963V87.209H72.8906V91.0517C72.8906 91.3954 72.8125 91.7078 72.6719 91.9734C72.5313 92.2389 72.3127 92.442 72.0471 92.5982C71.7815 92.7544 71.4535 92.8325 71.0942 92.8325C70.5943 92.8325 70.1882 92.7232 69.8602 92.4889C69.5321 92.2546 69.329 91.9421 69.2822 91.536H69.907C69.9695 91.7703 70.1101 91.9578 70.3288 92.0827C70.5475 92.2233 70.7974 92.2858 71.1098 92.2858C71.4535 92.2858 71.7347 92.1765 71.9534 91.9578C72.1721 91.7391 72.2814 91.4423 72.2814 91.0517V90.2551C72.1564 90.4738 71.969 90.6612 71.7347 90.8018C71.5004 90.9424 71.2036 91.0205 70.8911 91.0205C70.5787 91.0205 70.2507 90.9424 69.9851 90.7706C69.7196 90.5987 69.5009 90.38 69.3447 90.0832C69.1885 89.7864 69.1104 89.4428 69.1104 89.0679C69.1104 88.693 69.1885 88.3493 69.3447 88.0525C69.5009 87.7557 69.7196 87.537 69.9851 87.3808C70.2507 87.2246 70.5631 87.1465 70.8911 87.1465C71.2192 87.1465 71.5004 87.2246 71.7503 87.3496H71.7347L71.719 87.3652ZM72.094 88.3493C71.9846 88.1462 71.8284 87.9744 71.6253 87.8651C71.4379 87.7557 71.2192 87.6932 70.9849 87.6932C70.7506 87.6932 70.5319 87.7401 70.3444 87.8494C70.157 87.9588 70.0008 88.115 69.8914 88.3337C69.7821 88.5368 69.7196 88.7867 69.7196 89.0679C69.7196 89.349 69.7664 89.599 69.8914 89.8177C70.0008 90.0208 70.157 90.1926 70.3444 90.3019C70.5319 90.4113 70.7506 90.4738 70.9849 90.4738C71.2192 90.4738 71.4379 90.4269 71.6253 90.3019C71.8128 90.1926 71.969 90.0208 72.094 89.8177C72.2189 89.6146 72.2658 89.349 72.2658 89.0679C72.2658 88.7867 72.2189 88.5368 72.094 88.3337V88.3493Z" fill="#1D1D1B"/>
<path d="M73.9682 86.4705C73.8901 86.3924 73.8433 86.2831 73.8433 86.1737C73.8433 86.0644 73.8901 85.955 73.9682 85.8769C74.0463 85.7988 74.1557 85.752 74.265 85.752C74.3744 85.752 74.4681 85.7988 74.5618 85.8769C74.6556 85.955 74.6868 86.0644 74.6868 86.1737C74.6868 86.2831 74.6399 86.3924 74.5618 86.4705C74.4837 86.5486 74.39 86.5955 74.265 86.5955C74.1401 86.5955 74.0463 86.5486 73.9682 86.4705ZM74.5775 87.2047V90.9694H73.9526V87.2047H74.5775Z" fill="#1D1D1B"/>
<path d="M76.0931 90.4582H77.9364V90.9737H75.3745V90.4582L77.2022 87.7245H75.3901V87.2246H77.9207V87.7245L76.0931 90.4582Z" fill="#1D1D1B"/>
</svg>
