<svg width="33" height="24" viewBox="0 0 33 24" fill="none" xmlns="http://www.w3.org/2000/svg">
<g clip-path="url(#clip0_2147_1282)">
<path d="M22.386 0.805579L19.3153 0.800781C15.8703 0.800781 13.6425 2.96307 13.6425 6.31047V8.8518H10.5542C10.4297 8.84879 10.3091 8.89525 10.2189 8.981C10.1287 9.06674 10.0761 9.18477 10.0728 9.30921V12.9877C10.0728 13.2404 10.2887 13.4451 10.5558 13.4451H13.6393V22.7324C13.6393 22.9851 13.8552 23.1898 14.1223 23.1898H18.1494C18.2111 23.1915 18.2726 23.181 18.3303 23.1589C18.388 23.1369 18.4408 23.1036 18.4856 23.0612C18.5305 23.0187 18.5665 22.9678 18.5917 22.9114C18.6169 22.855 18.6307 22.7941 18.6324 22.7324V13.4467H22.2388C22.3006 13.4484 22.3621 13.4379 22.4198 13.4158C22.4775 13.3938 22.5303 13.3605 22.5751 13.3181C22.62 13.2756 22.656 13.2247 22.6812 13.1683C22.7064 13.1118 22.7202 13.051 22.7218 12.9893L22.7234 9.30921C22.7232 9.24861 22.7106 9.18869 22.6864 9.13314C22.6622 9.07758 22.6269 9.02756 22.5827 8.98615C22.4901 8.89915 22.3675 8.85106 22.2404 8.8518H18.6324V6.69751C18.6324 5.66274 18.8931 5.13816 20.3181 5.13816H22.3844C22.4463 5.13986 22.5079 5.12933 22.5657 5.10716C22.6235 5.08499 22.6763 5.05162 22.7212 5.00898C22.7661 4.96633 22.8021 4.91524 22.8272 4.85864C22.8523 4.80204 22.8659 4.74104 22.8674 4.67915V1.26139C22.8636 1.13723 22.8109 1.01961 22.7207 0.934209C22.6305 0.848807 22.5102 0.802565 22.386 0.805579Z" fill="#2B3944"/>
</g>
<defs>
<clipPath id="clip0_2147_1282">
<rect width="32" height="22.3906" fill="white" transform="translate(0.470215 0.800781)"/>
</clipPath>
</defs>
</svg>
