<svg width="33" height="24" viewBox="0 0 33 24" fill="none" xmlns="http://www.w3.org/2000/svg">
<g clip-path="url(#clip0_2147_1276)">
<path d="M16.7901 0.800781C13.6624 0.800781 13.2709 0.813576 12.0426 0.869872C10.8169 0.926169 9.97949 1.12065 9.24699 1.40533C8.47868 1.69445 7.78269 2.14767 7.20753 2.73341C6.62191 3.30866 6.1687 4.00463 5.87945 4.77287C5.59477 5.50537 5.39965 6.34277 5.34399 7.56914C5.28834 8.79678 5.2749 9.18766 5.2749 12.3159C5.2749 15.4442 5.2877 15.8351 5.34399 17.0634C5.40029 18.2891 5.59477 19.1265 5.87945 19.859C6.16857 20.6273 6.6218 21.3233 7.20753 21.8985C7.84726 22.5382 8.49019 22.9323 9.24699 23.2266C9.97949 23.5112 10.8169 23.7064 12.0426 23.762C13.2709 23.8177 13.6624 23.8311 16.7901 23.8311C19.9177 23.8311 20.3092 23.8183 21.5375 23.762C22.7632 23.7057 23.6006 23.5112 24.3331 23.2266C25.1014 22.9374 25.7974 22.4842 26.3726 21.8985C27.0123 21.2588 27.4064 20.6158 27.7007 19.859C27.9854 19.1265 28.1805 18.2891 28.2361 17.0634C28.2918 15.8351 28.3052 15.4436 28.3052 12.3159C28.3052 9.1883 28.2924 8.79678 28.2361 7.5685C28.1798 6.34277 27.9854 5.50537 27.7007 4.77287C27.4116 4.00457 26.9583 3.30858 26.3726 2.73341C25.7974 2.14779 25.1014 1.69457 24.3331 1.40533C23.6006 1.12065 22.7632 0.925529 21.5369 0.869872C20.3092 0.814216 19.9184 0.800781 16.7901 0.800781ZM16.7901 2.87543C19.8646 2.87543 20.2293 2.88759 21.4435 2.9426C22.5662 2.99378 23.1759 3.18122 23.5815 3.33924C24.1188 3.54779 24.5027 3.79792 24.9057 4.20031C25.3087 4.60334 25.5582 4.98718 25.7668 5.52456C25.9248 5.93015 26.1122 6.53981 26.1634 7.66254C26.2184 8.87675 26.2306 9.2414 26.2306 12.3159C26.2306 15.3905 26.2184 15.7551 26.1634 16.9694C26.1122 18.0921 25.9248 18.7017 25.7668 19.1073C25.5823 19.6076 25.2881 20.0601 24.9057 20.4316C24.5027 20.8346 24.1188 21.0841 23.5815 21.2927C23.1759 21.4507 22.5662 21.6381 21.4435 21.6893C20.2293 21.7443 19.8653 21.7565 16.7901 21.7565C13.7149 21.7565 13.3509 21.7443 12.1367 21.6893C11.0139 21.6381 10.4043 21.4507 9.99868 21.2927C9.49846 21.1082 9.04596 20.814 8.67444 20.4316C8.29207 20.06 7.99784 19.6075 7.81336 19.1073C7.65534 18.7017 7.4679 18.0921 7.41672 16.9694C7.36171 15.7551 7.34955 15.3905 7.34955 12.3159C7.34955 9.2414 7.36171 8.87675 7.41672 7.66254C7.4679 6.53981 7.65534 5.93015 7.81336 5.52456C8.02191 4.98718 8.27204 4.60334 8.67444 4.20031C9.07747 3.79728 9.4613 3.54779 9.99868 3.33924C10.4043 3.18122 11.0139 2.99378 12.1367 2.9426C13.3509 2.88759 13.7155 2.87543 16.7901 2.87543Z" fill="#2B3944"/>
<path d="M16.7914 16.1582C16.2868 16.1582 15.7872 16.0588 15.321 15.8657C14.8548 15.6727 14.4313 15.3896 14.0745 15.0329C13.7177 14.6761 13.4347 14.2525 13.2416 13.7863C13.0485 13.3202 12.9491 12.8206 12.9491 12.316C12.9491 11.8114 13.0485 11.3118 13.2416 10.8456C13.4347 10.3795 13.7177 9.95591 14.0745 9.59912C14.4313 9.24234 14.8548 8.95932 15.321 8.76623C15.7872 8.57314 16.2868 8.47376 16.7914 8.47376C17.8104 8.47376 18.7877 8.87857 19.5082 9.59912C20.2288 10.3197 20.6336 11.297 20.6336 12.316C20.6336 13.335 20.2288 14.3123 19.5082 15.0329C18.7877 15.7534 17.8104 16.1582 16.7914 16.1582ZM16.7914 6.39719C15.2216 6.39719 13.7161 7.02078 12.6061 8.13077C11.4961 9.24076 10.8726 10.7462 10.8726 12.316C10.8726 13.8857 11.4961 15.3912 12.6061 16.5012C13.7161 17.6112 15.2216 18.2348 16.7914 18.2348C18.3611 18.2348 19.8666 17.6112 20.9766 16.5012C22.0866 15.3912 22.7101 13.8857 22.7101 12.316C22.7101 10.7462 22.0866 9.24076 20.9766 8.13077C19.8666 7.02078 18.3611 6.39719 16.7914 6.39719ZM24.4323 6.28972C24.4323 6.66078 24.2849 7.01664 24.0225 7.27903C23.7601 7.54141 23.4043 7.68881 23.0332 7.68881C22.6621 7.68881 22.3063 7.54141 22.0439 7.27903C21.7815 7.01664 21.6341 6.66078 21.6341 6.28972C21.6341 5.91866 21.7815 5.56279 22.0439 5.30041C22.3063 5.03803 22.6621 4.89063 23.0332 4.89063C23.4043 4.89062 23.7601 5.03803 24.0225 5.30041C24.2849 5.56279 24.4323 5.91866 24.4323 6.28972Z" fill="#2B3944"/>
</g>
<defs>
<clipPath id="clip0_2147_1276">
<rect width="32" height="23" fill="white" transform="translate(0.470215 1)"/>
</clipPath>
</defs>
</svg>
