<svg width="144" height="59" viewBox="0 0 144 59" fill="none" xmlns="http://www.w3.org/2000/svg">
<path d="M12.1169 4.22669C12.1169 6.27502 10.2671 7.93581 7.9852 7.93581C5.70376 7.93581 3.85352 6.27502 3.85352 4.22669C3.85352 2.17838 5.70376 0.517578 7.9852 0.517578C10.2671 0.517578 12.1169 2.17838 12.1169 4.22669Z" fill="#FF4200"/>
<path d="M1.97214 13.5219L4.50752 9.57812C4.50752 9.57812 8.07544 12.3477 9.15572 13.2872C10.2355 14.2263 12.1609 15.8226 12.1137 18.4047C12.0664 20.9868 11.3153 23.2409 10.7048 24.7904C10.0948 26.3395 6.10382 34.5089 6.10382 34.5089L0 30.7058C0 30.7058 5.87019 25.276 8.12268 21.9732C8.82712 20.9401 9.67174 18.2173 7.27755 16.8084C4.88285 15.4001 1.97214 13.5219 1.97214 13.5219Z" fill="#FF4200"/>
<path d="M9.81299 11.1746C9.81299 11.1746 13.1463 9.01504 16.4333 0C17.3719 0.328605 22.1141 1.59631 22.1141 1.59631L20.5645 4.46029C20.5645 4.46029 27.6546 2.30074 33.758 2.30074C33.758 2.30074 37.0917 2.16005 39.6744 3.00518C42.2565 3.85032 44.8863 5.58781 45.5435 8.40456C46.2007 11.2213 46.9047 20.6122 45.5903 29.1097C45.5903 29.1097 45.3084 31.0823 43.4774 32.8193C41.6465 34.5563 39.4397 35.4014 35.5427 35.4014C31.6456 35.4014 29.5796 34.6503 29.5796 34.6503L30.378 31.3632C30.378 31.3632 32.7727 32.2556 34.6503 32.2556C36.5285 32.2556 38.1248 31.4577 38.9699 30.4719C38.9699 30.4719 39.7216 29.3448 39.7683 28.4058C39.8151 27.4667 39.8623 9.43763 39.6744 8.82712C39.4865 8.21664 39.2518 5.91591 36.3406 5.35265C33.4299 4.7894 31.1291 5.16473 30.4247 5.30592C29.7208 5.44662 25.3072 6.5264 23.1004 7.41826C23.9455 7.70012 25.5891 8.12269 25.5891 8.12269C25.5891 8.12269 24.8379 9.67225 23.4762 11.1746C25.3544 11.1279 37.8429 11.1746 37.8429 11.1746V13.9919H29.8147V17.7477H37.7495V20.565H29.8147V26.5276C29.8147 26.5276 31.1291 26.5276 33.054 25.0253C32.9133 23.9922 32.9601 23.851 32.4908 22.3487C33.7118 22.0673 36.1532 21.2222 36.1532 21.2222L39.2051 28.7816L34.6503 30.5653L33.8052 27.5134C33.8052 27.5134 32.4441 29.063 29.1103 30.0493C24.4687 31.4221 21.5046 31.3637 20.7062 31.317C20.7062 31.317 18.4527 31.4099 17.0911 30.7999C15.7289 30.19 13.7573 28.7816 13.7573 24.7434C13.7573 23.3822 14.0859 22.2552 14.0859 22.2552L19.8139 22.3019C19.8139 22.3019 19.5325 24.3213 19.5325 24.8373C19.5325 25.3539 19.1094 27.5606 23.2411 27.5134C23.2411 24.556 23.1944 20.5177 23.1944 20.5177L15.025 20.471V17.6537H23.1476V14.0853H21.0816C21.0816 14.0853 18.828 16.1986 17.5604 17.4663L15.2129 15.4002C15.2129 15.4002 17.922 12.5835 19.7671 8.49852C18.6874 8.92109 16.8092 9.76622 16.8092 9.76622C16.8092 9.76622 15.4943 11.4565 13.8512 13.1935C12.6775 12.5363 9.81299 11.1746 9.81299 11.1746Z" fill="#FF4200"/>
<path d="M59.2997 8.73399L59.2529 11.4106H85.5926C85.5926 11.4106 88.4561 9.67307 88.4561 7.98282C88.4561 6.29256 86.2498 5.82327 84.747 5.72932C83.2446 5.63536 79.019 5.58864 75.5445 6.01119C72.0705 6.43376 64.0885 7.37234 59.2997 8.73399ZM52.7733 15.2131V3.71045H59.2057V5.16607C59.2057 5.16607 68.4081 3.89837 69.394 3.89837V0.611328H76.6715V3.09998C76.6715 3.09998 81.3197 2.6774 84.3716 2.6774C87.4235 2.6774 90.991 3.19343 92.3531 3.66321C93.7153 4.13302 95.3583 5.30675 95.3583 7.74818C95.3583 10.1896 93.5268 12.725 89.865 15.1664C88.738 14.0394 87.8933 13.2415 87.8933 13.2415L87.9401 14.3213H76.766V18.1244H89.5831V21.129H76.766V30.0968H94.1846V33.806H52.7266V30.0968H69.2533V21.223H57.8441V18.1244H69.3V14.368H59.2997V15.2131H52.7733Z" fill="#FF4200"/>
<path d="M89.0224 25.6834C89.0224 27.7058 87.1935 29.3452 84.938 29.3452C82.6824 29.3452 80.8535 27.7058 80.8535 25.6834C80.8535 23.661 82.6824 22.0215 84.938 22.0215C87.1935 22.0215 89.0224 23.661 89.0224 25.6834Z" fill="#FF4200"/>
<path d="M113.2 16.7625C111.509 14.2271 109.115 12.6308 109.115 12.6308C109.115 12.6308 110.382 11.222 111.04 10.1422C112.402 11.0813 113.857 12.1143 115.406 13.2408C116.767 10.9406 118.552 6.90287 118.552 6.90287C118.552 6.90287 122.966 9.10965 123.811 9.53222C123.388 10.8939 123.012 11.3632 123.012 11.3632C123.012 11.3632 125.782 13.1941 127.473 14.2744C129.398 10.612 130.243 6.33963 130.243 6.33963L136.018 9.86083C136.018 9.86083 136.018 7.70078 135.924 6.80892C135.831 3.66307 132.403 3.28774 130.571 3.33447C128.74 3.3812 124.702 4.13235 120.148 5.11868C115.594 6.10449 108.41 9.2971 108.41 9.2971V21.2701C110.945 19.7205 111.932 18.4995 113.2 16.7625ZM108.457 22.5378V33.7591H101.227V2.48934H108.41V5.21265C108.41 5.21265 115.406 2.53658 120.148 1.55027C124.891 0.564453 127.613 0.564453 128.74 0.564453C129.867 0.564453 134.516 1.08098 137.145 2.06678C139.774 3.05259 141.652 5.02474 142.403 7.13754C143.154 9.25036 143.201 15.0251 143.201 17.7017C143.201 20.3777 143.014 28.5938 142.732 30.1901C142.45 31.787 141.792 33.6179 140.384 34.6509C138.976 35.684 136.956 35.4488 135.126 35.0735C133.294 34.6977 131.135 33.8998 129.304 32.914V29.8148C129.304 29.8148 131.087 31.0825 132.872 31.0825C134.656 31.0825 136.065 30.0027 136.065 27.608C136.065 25.2138 136.299 14.9316 136.111 10.706C134.938 12.5836 132.496 15.9169 131.416 17.1379C132.872 18.1709 134.61 19.7677 135.642 20.9882C134.28 22.2087 130.619 25.2138 130.619 25.2138C130.619 25.2138 128.458 21.9268 127.942 21.3168C127.379 21.974 123.904 25.8238 118.458 29.0164C117.519 27.6552 116.204 25.965 116.204 25.965C116.204 25.965 120.289 24.5566 125.266 17.9363C124.186 16.8093 122.59 14.7432 121.181 13.8046C120.618 14.603 118.974 16.34 118.974 16.34C118.974 16.34 120.477 17.4665 121.557 19.4386C120.618 20.3777 117.707 23.3829 117.707 23.3829L115.359 19.7677C115.359 19.7677 112.777 22.4905 110.382 24.2275C109.209 23.101 108.457 22.5378 108.457 22.5378Z" fill="#FF4200"/>
<path d="M3.10059 44.4249C3.10059 44.4249 3.79995 41.8733 6.53798 41.9759C9.27551 42.0784 11.2923 42.2227 12.8775 42.2227C14.4621 42.2227 18.064 41.8733 18.4551 41.7285C18.2697 42.4898 17.4058 43.9515 16.1295 43.9515H13.2269C13.2269 43.9515 12.5478 43.9312 12.5478 44.7748V54.8397C12.5478 54.8397 12.7332 56.2191 14.071 55.8895C13.6388 57.0627 12.527 57.7423 11.2304 57.7423C9.93425 57.7423 8.65792 56.9185 8.65792 55.7864V44.6103C8.65792 44.0338 8.57564 43.8896 7.54615 43.8484C6.92906 43.8236 5.73908 43.7657 4.70603 43.8896C4.03917 43.9693 3.51248 44.2151 3.10059 44.4249Z" fill="#FF4200"/>
<path d="M22.5515 50.4541C21.2554 50.4541 20.2051 51.6892 20.2051 53.2124C20.2051 54.7356 21.2554 55.9703 22.5515 55.9703C23.8476 55.9703 24.898 54.7356 24.898 53.2124C24.898 51.6892 23.8476 50.4541 22.5515 50.4541ZM17.6529 47.0786C17.7748 46.6535 18.0028 45.9262 18.9084 45.4112C19.912 44.8404 21.3986 44.8145 21.9339 44.8145C22.4692 44.8145 24.1575 44.9181 24.6714 45.0618C25.1859 45.2055 28.1292 45.6591 28.1292 48.8903V54.9824C28.1292 54.9824 28.2531 56.2587 29.5497 55.8468C29.3643 57.1023 28.1292 57.7408 27.2444 57.7408C26.3592 57.7408 24.9188 57.2049 24.9188 56.1145C24.9188 56.1145 24.3418 57.9459 21.2549 57.9256C18.1674 57.9053 16.5 56.0525 16.5 53.2947C16.5 50.5363 18.4965 48.6226 21.4402 48.6226C22.4281 48.6226 24.1778 49.0137 24.9188 50.1869C24.9254 48.7465 24.6592 46.7861 22.4448 46.5804C21.3077 46.5077 19.0328 46.5565 17.6529 47.0786Z" fill="#FF4200"/>
<path d="M67.2458 50.4541C65.9497 50.4541 64.8994 51.6892 64.8994 53.2124C64.8994 54.7356 65.9497 55.9703 67.2458 55.9703C68.542 55.9703 69.5923 54.7356 69.5923 53.2124C69.5923 51.6892 68.542 50.4541 67.2458 50.4541ZM62.3472 47.0786C62.4691 46.6535 62.6972 45.9262 63.6027 45.4112C64.6063 44.8404 66.0929 44.8145 66.6282 44.8145C67.1636 44.8145 68.8518 44.9181 69.3658 45.0618C69.8803 45.2055 72.8235 45.6591 72.8235 48.8903V54.9824C72.8235 54.9824 72.9474 56.2587 74.2435 55.8468C74.0587 57.1023 72.8235 57.7408 71.9387 57.7408C71.0535 57.7408 69.6131 57.2049 69.6131 56.1145C69.6131 56.1145 69.0362 57.9459 65.9492 57.9256C62.8618 57.9053 61.1943 56.0525 61.1943 53.2947C61.1943 50.5363 63.1908 48.6226 66.1346 48.6226C67.1224 48.6226 68.8721 49.0137 69.6131 50.1869C69.6197 48.7465 69.3536 46.7861 67.1392 46.5804C66.002 46.5077 63.7272 46.5565 62.3472 47.0786Z" fill="#FF4200"/>
<path d="M37.2894 46.7693C35.8912 46.7693 34.7581 48.8425 34.7581 51.4002C34.7581 53.9579 35.8912 56.0312 37.2894 56.0312C38.6876 56.0312 39.8207 53.958 39.8207 51.4002C39.8207 48.8425 38.6876 46.7693 37.2894 46.7693ZM43.7112 51.4002C43.7112 55.0723 40.836 58.0485 37.2894 58.0485C33.7428 58.0485 30.8677 55.0723 30.8677 51.4002C30.8677 47.7287 33.7428 44.752 37.2894 44.752C40.836 44.752 43.7112 47.7287 43.7112 51.4002Z" fill="#FF4200"/>
<path d="M81.8568 46.7693C80.4586 46.7693 79.3255 48.8425 79.3255 51.4002C79.3255 53.9579 80.4586 56.0312 81.8568 56.0312C83.255 56.0312 84.3881 53.958 84.3881 51.4002C84.3881 48.8425 83.255 46.7693 81.8568 46.7693ZM88.2786 51.4002C88.2786 55.0723 85.4034 58.0485 81.8568 58.0485C78.3102 58.0485 75.4351 55.0723 75.4351 51.4002C75.4351 47.7287 78.3102 44.752 81.8568 44.752C85.4034 44.752 88.2786 47.7287 88.2786 51.4002Z" fill="#FF4200"/>
<path d="M114.87 46.7693C113.471 46.7693 112.338 48.8425 112.338 51.4002C112.338 53.9579 113.471 56.0312 114.87 56.0312C116.268 56.0312 117.401 53.958 117.401 51.4002C117.401 48.8425 116.268 46.7693 114.87 46.7693ZM121.291 51.4002C121.291 55.0723 118.416 58.0485 114.87 58.0485C111.323 58.0485 108.448 55.0723 108.448 51.4002C108.448 47.7287 111.323 44.752 114.87 44.752C118.416 44.752 121.291 47.7287 121.291 51.4002Z" fill="#FF4200"/>
<path d="M49.9301 48.7849C49.5451 49.9647 49.7503 53.1979 49.9301 53.814C50.1099 54.4301 50.7767 55.9695 52.4959 55.9695C54.2151 55.9695 54.8053 54.2762 54.9333 53.7114C55.0618 53.1471 55.3183 51.6585 54.8566 49.0927C54.3949 46.5273 52.4446 46.7325 52.4446 46.7325C51.0332 46.7584 50.315 47.6051 49.9301 48.7849ZM44.7725 42.2676C44.7725 42.2676 45.0289 40.3691 47.2103 40.3691C49.3912 40.3691 49.8275 41.7547 49.8275 42.1137V46.3729C49.8275 46.3729 50.7513 44.9874 53.5737 44.9874C56.396 44.9874 58.9873 46.9895 58.9873 50.7611C58.9873 50.7611 59.578 57.8167 53.4198 57.8167C51.4182 57.8167 50.2638 57.1498 49.6736 56.1747C49.2886 57.1757 48.3902 57.74 47.3129 57.74C46.2352 57.74 44.9523 57.0731 44.9523 55.8669C45.4139 55.9182 46.2865 55.8923 46.2865 54.7632V43.1661C46.2865 43.1661 46.1839 42.2676 44.7725 42.2676Z" fill="#FF4200"/>
<path d="M93.522 56.0981C93.522 57.0758 92.718 57.8681 91.7261 57.8681C90.7342 57.8681 89.9302 57.0758 89.9302 56.0981C89.9302 55.1204 90.7342 54.3281 91.7261 54.3281C92.718 54.3281 93.522 55.1204 93.522 56.0981Z" fill="#FF4200"/>
<path d="M106.634 55.9194C106.634 55.9194 105.993 55.2271 105.403 55.2525C104.812 55.2774 104.505 55.4831 104.171 55.6116C103.837 55.7396 103.119 55.9961 102.477 55.9961C101.836 55.9961 100.656 55.7396 99.7833 54.4054C98.9021 53.0574 98.9102 50.4281 99.1931 49.3249C99.4755 48.2213 100.142 47.3746 100.912 46.8876C101.682 46.4005 103.144 46.5798 103.658 46.9902C104.171 47.4005 104.402 48.17 105.351 48.17C106.301 48.17 106.839 47.0415 106.685 46.2715C106.685 46.2715 105.146 45.0155 101.965 44.9886C98.9879 44.9632 97.2946 46.5793 96.7557 47.2208C96.2164 47.8622 95.1904 49.4016 95.1904 51.4545C95.1904 53.5074 96.2169 55.5857 97.4485 56.5349C98.672 57.4781 100.476 57.9464 101.81 57.9464C103.144 57.9464 105.197 57.4847 106.634 55.9194Z" fill="#FF4200"/>
<path d="M122.492 46.9377C122.492 46.9377 122.774 45.0133 124.98 45.0133C126.802 45.0133 127.29 46.3734 127.29 46.3734C127.29 46.3734 128.419 44.8848 130.779 44.8848C133.14 44.8848 134.218 46.0138 134.654 46.604C135.424 45.8599 136.219 44.9107 138.374 44.9107C140.53 44.9107 142.352 45.6552 142.557 47.8102C142.762 49.9652 142.685 55.2508 142.685 55.2508C142.685 55.2508 142.864 56.2772 143.994 55.841C144.096 56.9959 142.89 57.74 141.684 57.74C140.479 57.74 139.272 57.0218 139.272 55.5078V48.2978C139.272 48.2978 139.299 46.6299 137.323 46.6299C135.347 46.6299 135.141 48.4512 135.141 49.0159V57.6628H131.626V48.3232C131.626 48.3232 131.601 46.604 129.779 46.604C127.957 46.604 127.47 48.118 127.47 48.862V57.5861H123.98V48.0154C123.98 48.0154 124.057 46.9636 122.492 46.9377Z" fill="#FF4200"/>
</svg>
