<svg width="31" height="28" viewBox="0 0 31 28" fill="none" xmlns="http://www.w3.org/2000/svg">
<path d="M14.9702 1.24023C21.874 1.24023 27.4702 6.83643 27.4702 13.7402C27.4702 20.644 21.874 26.2402 14.9702 26.2402C8.06641 26.2402 2.47021 20.644 2.47021 13.7402C2.47021 6.83643 8.06641 1.24023 14.9702 1.24023ZM19.2822 18.8353C19.5121 18.1299 20.5892 11.0995 20.7224 9.71415C20.7626 9.29458 20.63 9.01578 20.3702 8.89132C20.0561 8.74023 19.5909 8.81578 19.0512 9.01034C18.311 9.27719 8.84793 13.2951 8.30119 13.5277C7.78271 13.7478 7.2925 13.9881 7.2925 14.3359C7.2925 14.5805 7.43761 14.718 7.83761 14.8609C8.25391 15.0093 9.30228 15.3272 9.9213 15.4978C10.5175 15.6625 11.1963 15.5196 11.5767 15.2832C11.98 15.0326 16.6338 11.9185 16.968 11.6457C17.3017 11.3728 17.568 11.7223 17.2952 11.9957C17.0224 12.2685 13.8278 15.369 13.4066 15.7984C12.8952 16.3196 13.2583 16.8598 13.6012 17.0761C13.993 17.3228 16.811 19.2131 17.2354 19.5163C17.6599 19.8196 18.0903 19.9571 18.4843 19.9571C18.8784 19.9571 19.086 19.4381 19.2822 18.8353Z" fill="#2B3944"/>
</svg>
