<svg width="597" height="384" viewBox="0 0 597 384" fill="none" xmlns="http://www.w3.org/2000/svg">
<path d="M384.204 254.46L382.907 254.37L380.144 39.5781L381.429 39.6552L384.204 254.46Z" fill="#00145A" fill-opacity="0.8"/>
<path d="M380.94 47.1583L350.025 46.2973L349.961 45.0122L380.876 45.8732L380.94 47.1583Z" fill="#00145A" fill-opacity="0.8"/>
<path d="M354.317 70.6763H353.032L349.511 25.8135H350.796L354.317 70.6763Z" fill="#00145A" fill-opacity="0.8"/>
<path d="M356.925 27.5355H355.64L354.214 9.42845H355.499L356.925 27.5355Z" fill="#00145A" fill-opacity="0.8"/>
<path d="M356.399 10.0306L332.589 1.40761L332.936 0.186772L356.746 8.80979L356.399 10.0306Z" fill="#00145A" fill-opacity="0.8"/>
<path d="M356.065 69.585L338.731 67.002L338.821 65.7169L356.154 68.2999L356.065 69.585Z" fill="#00145A" fill-opacity="0.8"/>
<path d="M357.555 242.391L356.257 242.288L356.193 67.1676L357.478 67.2704L357.555 242.391Z" fill="#00145A" fill-opacity="0.8"/>
<path d="M358.878 245.566H299.772L299.669 244.281H358.776L358.878 245.566Z" fill="#00145A" fill-opacity="0.8"/>
<path d="M345.104 247.544L343.819 247.48L338.988 66.3193L340.273 66.3964L345.104 247.544Z" fill="#00145A" fill-opacity="0.8"/>
<path d="M347.301 134.237L336.675 129.932L337.073 128.737L347.7 133.042L347.301 134.237Z" fill="#00145A" fill-opacity="0.8"/>
<path d="M344.976 191.501L343.691 191.385L344.282 133.581L345.567 133.697L344.976 191.501Z" fill="#00145A" fill-opacity="0.8"/>
<path d="M339.527 200.496L338.499 199.635L344.744 191.873L345.772 192.734L339.527 200.496Z" fill="#00145A" fill-opacity="0.8"/>
<path d="M303.922 246.696L302.637 246.593L302.959 98.2284L304.244 98.3312L303.922 246.696Z" fill="#00145A" fill-opacity="0.8"/>
<path d="M253.682 174.281L252.384 174.088L257.794 90.4149L259.091 90.6077L253.682 174.281Z" fill="#00145A" fill-opacity="0.8"/>
<path d="M249.801 266.538L248.517 266.448L247.656 179.318L248.941 179.408L249.801 266.538Z" fill="#00145A" fill-opacity="0.8"/>
<path d="M30.2598 184.318L30.1571 183.033L232.249 182.172L232.352 183.457L30.2598 184.318Z" fill="#00145A" fill-opacity="0.8"/>
<path d="M39.2028 178.279L39.1001 176.994L235.128 175.272L235.243 176.557L39.2028 178.279Z" fill="#00145A" fill-opacity="0.8"/>
<path d="M30.5812 267.425L29.2963 267.271L32.894 180.989L33.7292 181.362C34.2946 181.619 47.4522 187.852 51.1528 212.963L49.8807 213.053C46.8354 192.311 37.0315 184.806 34.1147 183.007L30.594 267.438L30.5812 267.425Z" fill="#00145A" fill-opacity="0.8"/>
<path d="M231.954 268.259L230.669 268.156L230.733 183.121C227.392 185.318 216.471 193.774 212.976 212.305L211.704 211.971C215.944 189.52 230.887 181.45 231.042 181.373L232.018 180.859L231.954 268.271V268.259Z" fill="#00145A" fill-opacity="0.8"/>
<path d="M28.4096 269.725L28.294 268.427L230.322 266.705L230.438 268.003L28.4096 269.725Z" fill="#00145A" fill-opacity="0.8"/>
<path d="M38.6248 263.557L37.3399 263.377L40.8734 210.328L42.1583 210.508L38.6248 263.557Z" fill="#00145A" fill-opacity="0.8"/>
<path d="M241.938 348.22L48.9813 347.359L34.8472 343.015C31.4935 341.82 29.1935 340.008 27.9986 337.618C26.4824 334.585 27.2662 331.668 27.4589 331.038L25.8399 288.707L30.9282 279.377L32.6628 269.122L33.9349 269.43L32.1103 279.968L27.1377 289.092L28.7438 331.308L28.7053 331.424C28.7053 331.424 27.7159 334.277 29.1293 337.104C30.1572 339.147 32.1746 340.715 35.1427 341.769L49.0584 346.048L241.771 346.909L270.116 344.365C270.425 337.104 274.164 269.096 304.449 263.236C311.799 263.198 317.967 265.961 323.042 271.345C333.835 282.808 338.551 305.31 336.662 336.423L335.377 336.243C337.24 305.503 332.666 283.361 322.143 272.193C317.35 267.104 311.465 264.521 304.668 264.521C274.382 270.394 271.401 344.288 271.375 345.033V345.56L241.912 348.194L241.938 348.22Z" fill="#00145A" fill-opacity="0.8"/>
<path d="M512.465 316.657L494.181 255.846L495.414 255.563L513.699 316.374L512.465 316.657Z" fill="#00145A" fill-opacity="0.8"/>
<path d="M335.981 44.37L334.696 44.3443L332.165 1.47338L154.358 8.34866C154.178 8.34866 144.078 7.71897 132.719 21.5081L131.704 20.6342C143.487 6.33107 153.856 7.01216 154.293 7.05071L333.386 0.124023L335.994 44.37H335.981Z" fill="#00145A" fill-opacity="0.8"/>
<path d="M341.738 109.356L341.172 109.253C341.095 109.241 341.018 109.228 340.954 109.202L239.162 86.8156L239.342 85.5561L340.478 107.801C340.376 106.863 340.286 105.282 340.144 102.622C339.733 95.3101 339.155 82.5105 338.422 64.5962C337.844 50.3058 333.488 39.3439 325.496 32.006C313.958 21.4039 298.641 22.1364 298.487 22.1364L90.5484 22.9974L86.2182 25.9146L85.4472 24.8223L90.0729 21.6995H90.2528L298.346 20.8385C298.474 20.8256 314.343 20.0803 326.318 31.0807C334.593 38.6885 339.103 49.9717 339.695 64.6476C341.108 99.114 341.622 106.503 341.789 108.084L342.033 108.135L341.725 109.343L341.738 109.356Z" fill="#00145A" fill-opacity="0.8"/>
<path d="M62.9226 264.791L61.6377 264.739C60.417 231.378 52.2321 217.319 45.589 211.408C39.8711 206.319 34.7058 206.743 34.6544 206.756L34.4231 205.471C34.6544 205.445 40.1538 204.957 46.3471 210.431C53.2215 216.51 61.6891 230.89 62.9355 264.804L62.9226 264.791Z" fill="#00145A" fill-opacity="0.8"/>
<path d="M193.124 264.934L191.852 264.6C200.049 221.651 210.714 208.865 218.205 205.691C222.677 203.801 225.709 205.472 225.838 205.549L225.272 206.667C225.17 206.603 222.613 205.241 218.706 206.924C211.485 210.034 201.193 222.615 193.111 264.934H193.124Z" fill="#00145A" fill-opacity="0.8"/>
<path d="M70.632 264.804L69.347 264.726C68.6917 235.092 55.2386 213.541 55.0973 213.322L56.1637 212.693C56.3051 212.911 69.9638 234.771 70.6191 264.804H70.632Z" fill="#00145A" fill-opacity="0.8"/>
<path d="M57.7059 228.318L57.5902 227.02L204.007 226.159L204.123 227.457L57.7059 228.318Z" fill="#00145A" fill-opacity="0.8"/>
<path d="M201.951 232.624H58.04L57.9372 231.339H201.848L201.951 232.624Z" fill="#00145A" fill-opacity="0.8"/>
<path d="M60.9182 247.3L60.8025 246.002L197.788 245.141L197.904 246.427L60.9182 247.3Z" fill="#00145A" fill-opacity="0.8"/>
<path d="M61.4578 254.201L61.3421 252.903L195.616 250.32L195.745 251.605L61.4578 254.201Z" fill="#00145A" fill-opacity="0.8"/>
<path d="M50.5488 213.657L50.446 212.359L212.282 211.498L212.385 212.796L50.5488 213.657Z" fill="#00145A" fill-opacity="0.8"/>
<path d="M44.2911 210.198L44.1754 208.9L212.796 207.178L212.911 208.476L44.2911 210.198Z" fill="#00145A" fill-opacity="0.8"/>
<path d="M49.0841 205.894L48.9813 204.596L213.387 203.735L213.49 205.02L49.0841 205.894Z" fill="#00145A" fill-opacity="0.8"/>
<path d="M40.8862 188.635L40.7705 187.337L223.088 185.615L223.204 186.913L40.8862 188.635Z" fill="#00145A" fill-opacity="0.8"/>
<path d="M39.203 181.221L37.9309 180.951L47.5806 107.636L48.8527 107.893L39.203 181.221Z" fill="#00145A" fill-opacity="0.8"/>
<path d="M235.822 176.002L234.537 175.822L238.456 105.952L239.753 106.131L235.822 176.002Z" fill="#00145A" fill-opacity="0.8"/>
<path d="M390.821 257.041L389.537 256.951L387.378 49.9217L388.676 50.0116L390.821 257.041Z" fill="#00145A" fill-opacity="0.8"/>
<path d="M592.027 113.983L377.291 46.6952L377.587 45.4615L592.323 112.749L592.027 113.983Z" fill="#00145A" fill-opacity="0.8"/>
<path d="M596.717 113.559L380.761 47.1319L381.043 45.8982L597 112.325L596.717 113.559Z" fill="#00145A" fill-opacity="0.8"/>
<path d="M564.71 254.203L382.649 253.766L382.547 252.468L564.607 252.905L564.71 254.203Z" fill="#00145A" fill-opacity="0.8"/>
<path d="M566.881 254.624H381.429L381.326 253.326H566.779L566.881 254.624Z" fill="#00145A" fill-opacity="0.8"/>
<path d="M566.881 254.624H381.429L381.326 253.326H566.779L566.881 254.624Z" fill="#00145A" fill-opacity="0.8"/>
<path d="M512.671 315.873L512.427 314.588L571.841 307.687L572.098 308.972L512.671 315.873Z" fill="#00145A" fill-opacity="0.8"/>
<path d="M511.694 314.575L511.476 313.29L571.854 307.687L572.073 308.972L511.694 314.575Z" fill="#00145A" fill-opacity="0.8"/>
<path d="M334.452 337L334.195 335.715L390.616 328.814L390.873 330.099L334.452 337Z" fill="#00145A" fill-opacity="0.8"/>
<path d="M334.452 337.002L334.195 335.717L388.946 329.253L389.19 330.538L334.452 337.002Z" fill="#00145A" fill-opacity="0.8"/>
<path d="M335.583 281.368L335.441 280.07L396.128 278.348L396.27 279.646L335.583 281.368Z" fill="#00145A" fill-opacity="0.8"/>
<path d="M286.152 257.207L285.985 255.922L321.834 254.2L321.988 255.485L286.152 257.207Z" fill="#00145A" fill-opacity="0.8"/>
<path d="M229.821 333.787L227.636 311.362L228.921 311.337L231.106 333.762L229.821 333.787Z" fill="#00145A" fill-opacity="0.8"/>
<path d="M232.378 306.221L229.937 291.558L231.209 291.443L233.637 306.106L232.378 306.221Z" fill="#00145A" fill-opacity="0.8"/>
<path d="M253.489 307.946L250.778 289.826L252.063 289.736L254.774 307.856L253.489 307.946Z" fill="#00145A" fill-opacity="0.8"/>
<path d="M36.1321 288.911H34.8472L34.1662 280.289H35.4511L36.1321 288.911Z" fill="#00145A" fill-opacity="0.8"/>
<path d="M62.5242 289.99L32.4442 288.705L32.3928 287.407L62.4856 288.705L62.5242 289.99Z" fill="#00145A" fill-opacity="0.8"/>
<path d="M65.2997 281.368H31.8917L31.7889 280.07H65.1969L65.2997 281.368Z" fill="#00145A" fill-opacity="0.8"/>
<path d="M34.4744 324.933L34.3588 323.635L85.293 323.211L85.4087 324.496L34.4744 324.933Z" fill="#00145A" fill-opacity="0.8"/>
<path d="M213.104 325.357H161.283L161.18 324.072H213.001L213.104 325.357Z" fill="#00145A" fill-opacity="0.8"/>
<path d="M214.505 345.881L213.22 345.83L212.41 324.69L213.695 324.741L214.505 345.881Z" fill="#00145A" fill-opacity="0.8"/>
<path d="M159.844 345.199L159.729 343.914L212.385 343.477L212.487 344.775L159.844 345.199Z" fill="#00145A" fill-opacity="0.8"/>
<path d="M161.091 341.974H159.806L158.508 325.576H159.793L161.091 341.974Z" fill="#00145A" fill-opacity="0.8"/>
<path d="M86.5266 341.55L84.8048 325.165L86.0897 325.126L87.8115 341.524L86.5266 341.55Z" fill="#00145A" fill-opacity="0.8"/>
<path d="M35.451 340.265L33.7678 324.304L35.0527 324.266L36.7359 340.226L35.451 340.265Z" fill="#00145A" fill-opacity="0.8"/>
<path d="M87.2077 342.179L36.1321 340.894L36.0678 339.596L87.1306 340.894L87.2077 342.179Z" fill="#00145A" fill-opacity="0.8"/>
<path d="M60.6869 339.815H59.4019L58.1813 324.291H59.4662L60.6869 339.815Z" fill="#00145A" fill-opacity="0.8"/>
<path d="M300.029 108.832L234.408 96.7523L234.537 95.48L300.157 107.56L300.029 108.832Z" fill="#00145A" fill-opacity="0.8"/>
<path d="M339.553 110.552L257.318 94.167L257.472 92.8947L339.707 109.28L339.553 110.552Z" fill="#00145A" fill-opacity="0.8"/>
<path d="M37.6353 98.4871L37.5325 97.202L235.372 96.7651L235.487 98.0631L37.6353 98.4871Z" fill="#00145A" fill-opacity="0.8"/>
<path d="M304.976 371.775C304.501 371.775 304.025 371.75 303.55 371.698C296.534 370.991 290.071 365.196 285.355 355.365C280.717 345.675 278.301 333.171 278.571 320.178C279.123 293.204 291.215 272.411 305.567 273.851C312.583 274.557 319.046 280.353 323.762 290.184C328.4 299.874 330.816 312.378 330.546 325.37C330.276 338.363 327.359 350.34 322.335 359.066C317.581 367.316 311.465 371.775 304.976 371.775ZM304.244 275.071C291.189 275.071 280.383 294.875 279.856 320.307C279.599 333.107 281.95 345.379 286.512 354.876C290.996 364.245 297.061 369.758 303.575 370.4C310.077 371.043 316.36 366.763 321.205 358.333C326.126 349.774 328.991 338.016 329.248 325.229C329.505 312.429 327.154 300.157 322.592 290.647C318.108 281.279 312.043 275.765 305.529 275.123C305.092 275.084 304.668 275.059 304.231 275.059L304.244 275.071Z" fill="#00145A" fill-opacity="0.8"/>
<path d="M429.973 354.349C429.562 354.349 429.138 354.324 428.727 354.285C422.572 353.668 416.918 348.592 412.794 339.995C408.733 331.539 406.639 320.628 406.87 309.281C407.101 297.933 409.646 287.498 414.027 279.878C418.486 272.129 424.332 268.209 430.474 268.826C436.629 269.443 442.283 274.519 446.407 283.116C450.467 291.572 452.562 302.483 452.331 313.83C452.099 325.177 449.555 335.613 445.174 343.233C441.023 350.455 435.665 354.349 429.973 354.349ZM429.331 270.06C424.088 270.06 419.09 273.761 415.158 280.597C410.866 288.051 408.386 298.28 408.155 309.422C407.924 320.564 409.98 331.256 413.95 339.519C417.843 347.654 423.099 352.435 428.752 353C434.393 353.565 439.828 349.839 444.056 342.526C448.347 335.086 450.827 324.843 451.059 313.702C451.29 302.56 449.234 291.868 445.264 283.605C441.37 275.47 436.115 270.689 430.461 270.124C430.089 270.085 429.716 270.072 429.343 270.072L429.331 270.06Z" fill="#00145A" fill-opacity="0.8"/>
<path d="M472.71 346.419C472.388 346.419 472.08 346.406 471.759 346.368C466.632 345.854 461.942 341.291 458.55 333.517C455.222 325.896 453.5 316.052 453.719 305.797C453.924 295.542 456.044 286.071 459.668 279.157C463.368 272.089 468.225 268.478 473.352 268.992C478.479 269.506 483.169 274.068 486.561 281.843C489.889 289.463 491.611 299.307 491.392 309.562C491.187 319.817 489.067 329.289 485.443 336.202C481.974 342.834 477.477 346.419 472.71 346.419ZM472.491 270.225C468.187 270.225 464.062 273.592 460.811 279.812C457.265 286.572 455.209 295.85 454.991 305.913C454.785 315.988 456.455 325.626 459.706 333.067C462.893 340.353 467.172 344.607 471.772 345.07C476.372 345.532 480.818 342.14 484.287 335.521C487.833 328.762 489.889 319.483 490.107 309.421C490.313 299.346 488.643 289.707 485.392 282.267C482.205 274.98 477.926 270.727 473.326 270.264C473.057 270.238 472.774 270.225 472.504 270.225H472.491Z" fill="#00145A" fill-opacity="0.8"/>
<path d="M382.354 353.128C381.943 353.128 381.532 353.102 381.108 353.063C373.604 352.318 366.729 344.697 362.733 332.694L362.502 331.988L392.248 328.068L392.402 328.672C393.674 333.491 395.396 337.758 397.529 341.369L397.722 341.703L397.542 342.024C393.379 349.234 388.033 353.128 382.354 353.128ZM364.198 333.08C368.04 344.119 374.349 351.097 381.146 351.778C386.684 352.331 392.042 348.733 396.244 341.626C394.227 338.13 392.582 334.057 391.336 329.507L364.211 333.08H364.198Z" fill="#00145A" fill-opacity="0.8"/>
<path d="M304.603 372.379L279.92 372.315C267.328 366.634 261.494 347.242 261.25 346.42L262.484 346.15C262.535 346.343 268.343 365.606 280.241 371.094H304.513L304.616 372.392L304.603 372.379Z" fill="#00145A" fill-opacity="0.8"/>
<path d="M306.094 352.472C305.901 352.472 305.708 352.472 305.515 352.446C297.343 351.829 290.636 337.924 290.572 321.437C290.546 313.533 292.011 306.195 294.709 300.798C297.472 295.246 301.237 292.368 305.284 292.663C309.332 292.972 313.109 296.416 315.923 302.391C318.66 308.2 320.189 315.769 320.228 323.673C320.254 331.576 318.789 338.914 316.09 344.311C313.456 349.593 309.923 352.459 306.094 352.459V352.472ZM304.796 293.935C301.442 293.935 298.294 296.583 295.866 301.44C293.257 306.684 291.831 313.816 291.857 321.527C291.921 337.295 298.037 350.583 305.503 351.148C309.023 351.418 312.377 348.758 314.921 343.656C317.529 338.413 318.956 331.28 318.93 323.57C318.904 315.859 317.414 308.496 314.754 302.867C312.171 297.379 308.805 294.218 305.271 293.948C305.117 293.948 304.95 293.935 304.796 293.935Z" fill="#00145A" fill-opacity="0.8"/>
<path d="M139.607 371.081L114.923 371.017C102.331 365.337 96.4974 345.945 96.2533 345.122L97.4868 344.852C97.5382 345.045 103.346 364.309 115.244 369.796H139.517L139.619 371.094L139.607 371.081Z" fill="#00145A" fill-opacity="0.8"/>
<path d="M308.24 347.165C308.086 347.165 307.944 347.165 307.79 347.152C301.507 346.677 296.547 336.46 296.496 323.879C296.444 311.298 301.327 301.827 307.61 302.289C313.893 302.765 318.853 312.982 318.905 325.563C318.93 331.474 317.825 336.962 315.808 341.01C313.816 344.993 311.144 347.165 308.227 347.165H308.24ZM307.263 303.562C301.956 303.562 297.742 312.57 297.78 323.969C297.832 335.625 302.316 345.443 307.777 345.854C310.347 346.047 312.775 344.094 314.639 340.354C316.579 336.473 317.632 331.179 317.607 325.46C317.555 313.804 313.071 303.986 307.61 303.575C307.494 303.575 307.379 303.562 307.25 303.562H307.263Z" fill="#00145A" fill-opacity="0.8"/>
<path d="M429.241 338.619C429.074 338.619 428.92 338.619 428.753 338.606C421.878 338.092 416.443 326.873 416.392 313.071C416.34 299.269 421.711 288.886 428.547 289.387C435.421 289.901 440.856 301.12 440.908 314.922C440.959 328.39 435.871 338.619 429.241 338.619ZM428.161 290.659C422.289 290.659 417.625 300.593 417.676 313.161C417.728 326.012 422.688 336.846 428.74 337.308C434.779 337.771 439.674 327.67 439.623 314.819C439.572 301.968 434.612 291.135 428.56 290.672C428.431 290.672 428.303 290.659 428.161 290.659Z" fill="#00145A" fill-opacity="0.8"/>
<path d="M421.21 332.696L420.863 332.182C417.728 327.556 415.826 320.192 415.8 312.468C415.775 306.416 416.88 300.761 418.91 296.52L419.115 296.096L419.604 296.212C424.435 297.394 428.11 305.58 428.148 315.257C428.187 323.43 425.604 330.331 421.724 332.426L421.21 332.696ZM419.861 297.613C418.036 301.635 417.06 306.917 417.072 312.558C417.098 319.716 418.768 326.527 421.531 330.961C424.705 328.751 426.876 322.415 426.838 315.154C426.799 306.596 423.767 299.078 419.848 297.613H419.861Z" fill="#00145A" fill-opacity="0.8"/>
<path d="M471.232 330.908C471.09 330.908 470.936 330.908 470.782 330.895C467.711 330.664 464.846 328.055 462.726 323.557C460.67 319.214 459.539 313.559 459.513 307.661C459.462 295.105 464.306 285.621 470.615 286.11C476.885 286.585 481.845 296.789 481.897 309.344C481.922 315.243 480.817 320.73 478.813 324.765C476.821 328.749 474.149 330.908 471.245 330.908H471.232ZM470.255 287.382C464.961 287.382 460.747 296.365 460.798 307.751C460.824 313.469 461.916 318.905 463.882 323.069C465.771 327.079 468.225 329.405 470.782 329.597C473.326 329.79 475.768 327.837 477.631 324.11C479.558 320.229 480.612 314.96 480.599 309.241C480.547 297.611 476.076 287.806 470.615 287.395C470.499 287.395 470.384 287.382 470.268 287.382H470.255Z" fill="#00145A" fill-opacity="0.8"/>
<path d="M463.921 325.549L463.574 325.035C460.721 320.833 458.987 314.125 458.961 307.108C458.935 301.608 459.95 296.468 461.788 292.612L461.993 292.188L462.482 292.304C466.902 293.383 470.255 300.837 470.294 309.653C470.32 317.093 467.968 323.378 464.435 325.28L463.921 325.549ZM462.751 293.705C461.12 297.342 460.233 302.109 460.259 307.198C460.284 313.649 461.775 319.792 464.268 323.802C467.107 321.784 469.035 316.065 469.009 309.537C468.983 301.826 466.272 295.054 462.751 293.692V293.705Z" fill="#00145A" fill-opacity="0.8"/>
<path d="M139.954 370.476C139.491 370.476 139.016 370.451 138.54 370.412C129.7 369.525 121.721 360.401 117.198 346.008L116.954 345.211H162.504L162.247 346.085C157.686 361.301 149.231 370.476 139.966 370.476H139.954ZM118.688 346.496C123.07 359.874 130.458 368.304 138.566 369.114C147.586 370.014 156.041 361.365 160.731 346.496H118.688Z" fill="#00145A" fill-opacity="0.8"/>
<path d="M141.097 351.174C140.904 351.174 140.712 351.174 140.519 351.149C137.756 350.943 135.071 349.234 132.745 346.214L131.961 345.199H149.899L149.128 346.252C146.776 349.478 144.014 351.174 141.084 351.174H141.097ZM134.595 346.497C136.446 348.553 138.476 349.709 140.519 349.864C142.883 350.043 145.196 348.887 147.252 346.497H134.595Z" fill="#00145A" fill-opacity="0.8"/>
<path d="M428.739 354.297L407.795 352.717C396.013 348.759 391.361 329.701 391.168 328.904L392.415 328.698C392.466 328.891 397.053 347.692 408.027 351.47L428.727 353.012V354.297H428.739Z" fill="#00145A" fill-opacity="0.8"/>
<path d="M358.442 353.399L358.3 353.334C346.453 348.078 343.524 335.291 343.498 335.163L344.757 334.983C344.783 335.099 347.558 347.102 358.609 352.101L381.069 351.779L381.185 353.077L358.442 353.399Z" fill="#00145A" fill-opacity="0.8"/>
<path d="M471.437 347.255L452.703 345.958C447.808 344.929 445.148 340.958 445.045 340.791L446.099 340.136C446.099 340.136 448.566 343.786 452.78 344.685L471.424 345.97V347.255H471.437Z" fill="#00145A" fill-opacity="0.8"/>
<path d="M513.853 315.873L491.469 314.575L491.444 313.289L513.814 314.575L513.853 315.873Z" fill="#00145A" fill-opacity="0.8"/>
<path d="M474.059 261.527H399.957L399.854 260.229H473.956L474.059 261.527Z" fill="#00145A" fill-opacity="0.8"/>
<path d="M419.103 260.459L413.989 255.28L414.862 254.406L419.989 259.585L419.103 260.459Z" fill="#00145A" fill-opacity="0.8"/>
<path d="M332.769 273.927L331.972 272.847L339.27 267.668L340.067 268.748L332.769 273.927Z" fill="#00145A" fill-opacity="0.8"/>
<path d="M386.427 269.29L339.707 268.866L339.617 267.568L386.337 268.005L386.427 269.29Z" fill="#00145A" fill-opacity="0.8"/>
<path d="M396.09 277.744L385.99 269.121L386.787 268.17L396.886 276.793L396.09 277.744Z" fill="#00145A" fill-opacity="0.8"/>
<path d="M398.171 312.235L396.886 312.17L395.846 277.241L397.131 277.306L398.171 312.235Z" fill="#00145A" fill-opacity="0.8"/>
<path d="M372.91 317.879L371.625 317.763L372.062 279.802L373.347 279.917L372.91 317.879Z" fill="#00145A" fill-opacity="0.8"/>
<path d="M340.324 317.389H339.039L336.187 281.149H337.472L340.324 317.389Z" fill="#00145A" fill-opacity="0.8"/>
<path d="M372.306 318.455L339.72 318.031L339.643 316.733L372.229 317.17L372.306 318.455Z" fill="#00145A" fill-opacity="0.8"/>
<path d="M338.153 302.934L337.973 301.649L371.214 299.49L371.394 300.775L338.153 302.934Z" fill="#00145A" fill-opacity="0.8"/>
<path d="M338.204 298.19L338.037 296.892L371.741 295.17L371.908 296.468L338.204 298.19Z" fill="#00145A" fill-opacity="0.8"/>
<path d="M230.451 268.003L230.322 266.705L271.799 265.844L271.928 267.129L230.451 268.003Z" fill="#00145A" fill-opacity="0.8"/>
<path d="M230.592 275.329L230.464 274.031L280.511 273.17L280.64 274.468L230.592 275.329Z" fill="#00145A" fill-opacity="0.8"/>
<path d="M255.776 279.646L255.648 278.348L277.029 277.924L277.157 279.209L255.776 279.646Z" fill="#00145A" fill-opacity="0.8"/>
<path d="M254.517 296.031L254.35 294.746L273.136 293.872L273.29 295.17L254.517 296.031Z" fill="#00145A" fill-opacity="0.8"/>
<path d="M252.615 315.436L252.448 314.15L272.943 313.289L273.097 314.575L252.615 315.436Z" fill="#00145A" fill-opacity="0.8"/>
<path d="M252.268 335.946L250.148 314.382L251.42 314.356L253.553 335.92L252.268 335.946Z" fill="#00145A" fill-opacity="0.8"/>
<path d="M252.423 334.855L252.269 333.558L270.18 332.697L270.347 333.994L252.423 334.855Z" fill="#00145A" fill-opacity="0.8"/>
<path d="M252.333 290.853L230.425 289.992L230.374 288.707L252.281 289.568L252.333 290.853Z" fill="#00145A" fill-opacity="0.8"/>
<path d="M252.204 291.521L250.907 291.482L250.29 278.117L251.575 278.156L252.204 291.521Z" fill="#00145A" fill-opacity="0.8"/>
<path d="M195.681 283.527L195.565 282.229L229.795 281.805L229.911 283.09L195.681 283.527Z" fill="#00145A" fill-opacity="0.8"/>
<path d="M185.196 308.112L185.08 306.814L228.742 306.39L228.844 307.675L185.196 308.112Z" fill="#00145A" fill-opacity="0.8"/>
<path d="M228.305 311.992L182.806 310.694L182.741 309.409L228.24 310.694L228.305 311.992Z" fill="#00145A" fill-opacity="0.8"/>
<path d="M228.382 311.992L228.163 310.707L250.701 308.548L250.919 309.833L228.382 311.992Z" fill="#00145A" fill-opacity="0.8"/>
<path d="M228.883 307.675L228.703 306.39L252.59 305.092L252.757 306.39L228.883 307.675Z" fill="#00145A" fill-opacity="0.8"/>
<path d="M227.932 309.718L226.634 309.525L226.827 306.505L228.112 306.698L227.932 309.718Z" fill="#00145A" fill-opacity="0.8"/>
<path d="M235.089 203.942L234.871 202.657L331.227 194.252L331.433 195.537L235.089 203.942Z" fill="#00145A" fill-opacity="0.8"/>
<path d="M238.032 192.298L237.813 191.013L328.374 182.596L328.593 183.894L238.032 192.298Z" fill="#00145A" fill-opacity="0.8"/>
<path d="M334.786 185.742L330.083 183.159L330.636 182.029L335.339 184.624L334.786 185.742Z" fill="#00145A" fill-opacity="0.8"/>
<path d="M336.212 191.655H334.927L334.426 185.191H335.711L336.212 191.655Z" fill="#00145A" fill-opacity="0.8"/>
<path d="M331.741 195.422L330.919 194.368L335.159 191.13L335.981 192.183L331.741 195.422Z" fill="#00145A" fill-opacity="0.8"/>
<path d="M328.734 183.855L328.233 182.634L330.109 181.978L330.61 183.212L328.734 183.855Z" fill="#00145A" fill-opacity="0.8"/>
<path d="M235.539 195.949L234.485 195.126L237.389 191.245L238.443 192.068L235.539 195.949Z" fill="#00145A" fill-opacity="0.8"/>
<path d="M235.629 203.349L234.331 203.246L234.37 195.484L235.655 195.587L235.629 203.349Z" fill="#00145A" fill-opacity="0.8"/>
<path d="M290.289 136.01H274.87C270.977 136.01 267.546 132.823 267.238 128.891L266.146 115.089C265.837 111.169 268.754 107.97 272.647 107.97H288.066C291.96 107.97 295.39 111.157 295.699 115.089L296.791 128.891C297.099 132.811 294.183 136.01 290.289 136.01ZM272.763 109.267C269.576 109.267 267.186 111.876 267.443 115.089L268.536 128.891C268.793 132.104 271.594 134.713 274.78 134.713H290.199C293.386 134.713 295.776 132.104 295.519 128.891L294.427 115.089C294.17 111.876 291.369 109.267 288.182 109.267H272.763Z" fill="#00145A" fill-opacity="0.8"/>
<path d="M287.977 133.864H278.121C274.228 133.864 270.797 130.677 270.489 126.744L269.782 117.684C269.474 113.765 272.39 110.565 276.284 110.565H286.139C290.032 110.565 293.463 113.752 293.771 117.684L294.478 126.744C294.787 130.664 291.87 133.864 287.977 133.864ZM276.399 111.863C273.213 111.863 270.823 114.472 271.08 117.684L271.786 126.744C272.043 129.957 274.845 132.566 278.031 132.566H287.887C291.073 132.566 293.463 129.957 293.206 126.744L292.499 117.684C292.242 114.472 289.441 111.863 286.255 111.863H276.399Z" fill="#00145A" fill-opacity="0.8"/>
<path d="M293.489 182.171H278.07C274.176 182.171 270.746 178.984 270.437 175.052L268.06 144.865C267.752 140.945 270.668 137.745 274.562 137.745H289.981C293.874 137.745 297.305 140.932 297.613 144.865L299.99 175.052C300.299 178.971 297.382 182.171 293.489 182.171ZM274.677 139.043C271.491 139.043 269.101 141.652 269.358 144.865L271.735 175.052C271.992 178.264 274.793 180.873 277.98 180.873H293.399C296.585 180.873 298.975 178.264 298.718 175.052L296.341 144.865C296.084 141.652 293.283 139.043 290.096 139.043H274.677Z" fill="#00145A" fill-opacity="0.8"/>
<path d="M240.216 109.267H33.9863L33.9349 108.624C32.6628 92.4445 42.0684 87.5355 42.4796 87.3427L43.1221 88.5121C43.0321 88.5636 34.269 93.1771 35.1684 107.981H240.113L240.216 109.279V109.267Z" fill="#00145A" fill-opacity="0.8"/>
<path d="M32.9067 177.249C29.0648 150.159 35.3352 139.737 35.6051 139.313L35.8749 138.876L41.4129 141.356L42.0425 137.668L33.5877 136.82L33.5364 136.241C31.3905 114.51 37.6481 111.182 37.9179 111.053L38.1878 110.989H44.6124L44.7152 112.287H38.4705C37.738 112.801 33.0224 116.926 34.7699 135.637L43.5716 136.511L42.4408 143.168L36.4788 140.495C35.3609 142.757 30.8509 153.642 34.1917 177.146L32.9196 177.223L32.9067 177.249Z" fill="#00145A" fill-opacity="0.8"/>
<path d="M42.5181 145.069L34.7314 144.208L34.7828 142.923L42.5566 143.784L42.5181 145.069Z" fill="#00145A" fill-opacity="0.8"/>
<path d="M95.9449 96.6231L94.66 96.4946C94.66 96.3661 94.9556 84.0034 94.8271 82.3328H96.112C96.2533 84.0677 95.9578 96.1219 95.9449 96.636V96.6231Z" fill="#00145A" fill-opacity="0.8"/>
<path d="M170.47 96.6096L169.185 96.4811L169.455 83.5401L170.74 83.6686L170.47 96.6096Z" fill="#00145A" fill-opacity="0.8"/>
<path d="M95.084 88.1415L94.9555 86.8435L169.378 85.5456L169.507 86.8435L95.084 88.1415Z" fill="#00145A" fill-opacity="0.8"/>
<path d="M70.2851 97.0464L69.0002 96.9179L69.1929 83.1159L70.4778 83.2444L70.2851 97.0464Z" fill="#00145A" fill-opacity="0.8"/>
<path d="M72.8549 97.0595L71.57 96.9053L72.1996 83.1034L73.4846 83.2576L72.8549 97.0595Z" fill="#00145A" fill-opacity="0.8"/>
<path d="M192.969 93.9608H191.684L190.772 82.3178H192.057L192.969 93.9608Z" fill="#00145A" fill-opacity="0.8"/>
<path d="M195.115 93.9873L193.74 81.9073L195.012 81.8559L196.387 93.9359L195.115 93.9873Z" fill="#00145A" fill-opacity="0.8"/>
<path d="M46.5528 78.6165L46.0517 77.3828L46.3086 77.9996L46.0388 77.3956C46.5399 77.0872 48.069 74.26 51.5511 54.5465C57.6674 22.8945 79.6009 24.2824 79.8322 24.3081L255.173 21.7122L255.288 23.0102L79.8836 25.5932C79.6138 25.5804 58.721 24.321 52.8232 54.8806C48.7628 77.8582 47.2723 78.3723 46.5656 78.6165H46.5528Z" fill="#00145A" fill-opacity="0.8"/>
<path d="M40.912 82.9746L41.3489 82.0236C44.2785 75.521 46.1288 65.6514 47.9919 52.8518C50.3176 27.6895 74.3199 24.3483 74.5641 24.3226L74.8211 25.6077C74.5898 25.6334 51.5126 28.8718 49.264 53.1088C47.4137 65.7928 45.6919 75.0712 42.9422 81.6766L234.55 80.8156L234.652 82.1135L40.912 82.9874V82.9746Z" fill="#00145A" fill-opacity="0.8"/>
<path d="M352.043 68.6707L336.88 22.9597L338.101 22.6384L353.263 68.3494L352.043 68.6707Z" fill="#00145A" fill-opacity="0.8"/>
<path d="M357.067 29.0263L328.22 20.429L296.123 20.8788L296.418 19.9792C303.383 -1.35345 331.278 1.01115 331.561 1.03685V2.32195C331.278 2.29625 305.13 0.098726 297.96 19.568L328.31 19.1439L357.349 27.8055L357.079 29.0392L357.067 29.0263Z" fill="#00145A" fill-opacity="0.8"/>
<path d="M136.96 16.1107L136.831 14.8127L299.425 12.6538L299.541 13.9517L136.96 16.1107Z" fill="#00145A" fill-opacity="0.8"/>
<path d="M132.553 19.9934L132.437 18.6954L298.474 16.9734L298.59 18.2713L132.553 19.9934Z" fill="#00145A" fill-opacity="0.8"/>
<path d="M234.639 80.8142C234.639 80.8142 234.524 80.8142 234.472 80.8013H44.3811L44.2783 79.5034H234.498C235.526 78.7966 238.738 70.5077 239.406 58.0679C241.013 23.8842 258.603 21.3654 259.348 21.2755L259.605 22.5606C259.438 22.5863 242.259 25.1308 240.704 58.235C240.062 70.1221 237.042 79.4263 235.243 80.6214C235.025 80.7628 234.819 80.8142 234.652 80.8142H234.639Z" fill="#00145A" fill-opacity="0.8"/>
<path d="M234.331 86.3285L233.046 86.0586L233.856 80.0186L235.141 80.3013L234.331 86.3285Z" fill="#00145A" fill-opacity="0.8"/>
<path d="M52.4633 52.7763L52.3477 51.4784L239.702 48.4584L239.83 49.7563L52.4633 52.7763Z" fill="#00145A" fill-opacity="0.8"/>
<path d="M120.179 178.405L106.533 177.775L80.7829 164.475L53.0671 164.051L52.9129 162.765L82.0164 160.157L120.179 178.418V178.405ZM106.918 176.555L114.037 176.85L81.8751 161.467L65.4152 162.945L81.0142 163.19L106.918 176.567V176.555Z" fill="#00145A" fill-opacity="0.8"/>
<path d="M222.536 178.405L208.89 177.775L183.14 164.475L155.424 164.051L155.27 162.765L184.373 160.157L222.536 178.418V178.405ZM209.275 176.555L216.394 176.85L184.232 161.467L167.772 162.945L183.371 163.19L209.275 176.567V176.555Z" fill="#00145A" fill-opacity="0.8"/>
<path d="M41.7086 324.496C37.8153 324.496 34.3846 321.309 34.0762 317.377C33.7678 313.444 36.6846 310.257 40.5779 310.257C44.4712 310.257 47.902 313.444 48.2103 317.377C48.5187 321.309 45.602 324.496 41.7086 324.496ZM40.6936 311.555C37.507 311.555 35.117 314.164 35.374 317.377C35.631 320.59 38.4321 323.198 41.6187 323.198C44.8053 323.198 47.1953 320.59 46.9383 317.377C46.6813 314.164 43.8802 311.555 40.6936 311.555Z" fill="#00145A" fill-opacity="0.8"/>
<path d="M58.4126 324.496C54.5193 324.496 51.0886 321.309 50.7802 317.377C50.4718 313.444 53.3886 310.257 57.2819 310.257C61.1752 310.257 64.6059 313.444 64.9143 317.377C65.2227 321.309 62.3059 324.496 58.4126 324.496ZM57.3975 311.555C54.2109 311.555 51.821 314.164 52.078 317.377C52.3349 320.59 55.1361 323.198 58.3227 323.198C61.5093 323.198 63.8992 320.59 63.6423 317.377C63.3853 314.164 60.5841 311.555 57.3975 311.555Z" fill="#00145A" fill-opacity="0.8"/>
<path d="M198.469 324.496C194.576 324.496 191.145 321.309 190.837 317.377C190.528 313.444 193.445 310.257 197.338 310.257C201.232 310.257 204.662 313.444 204.971 317.377C205.279 321.309 202.362 324.496 198.469 324.496ZM197.454 311.555C194.267 311.555 191.877 314.164 192.134 317.377C192.391 320.59 195.192 323.198 198.379 323.198C201.566 323.198 203.956 320.59 203.699 317.377C203.442 314.164 200.641 311.555 197.454 311.555Z" fill="#00145A" fill-opacity="0.8"/>
<path d="M214.749 324.496C210.856 324.496 207.425 321.309 207.116 317.377C206.808 313.444 209.725 310.257 213.618 310.257C217.511 310.257 220.942 313.444 221.251 317.377C221.559 321.309 218.642 324.496 214.749 324.496ZM213.734 311.555C210.547 311.555 208.157 314.164 208.414 317.377C208.671 320.59 211.472 323.198 214.659 323.198C217.845 323.198 220.235 320.59 219.978 317.377C219.721 314.164 216.92 311.555 213.734 311.555Z" fill="#00145A" fill-opacity="0.8"/>
<path d="M90.2784 321.051L90.1628 319.753L159.908 318.892L160.024 320.19L90.2784 321.051Z" fill="#00145A" fill-opacity="0.8"/>
<path d="M158.816 332.26L86.835 331.836L86.7322 330.538L158.726 330.975L158.816 332.26Z" fill="#00145A" fill-opacity="0.8"/>
<path d="M159.767 344.338L87.7086 343.053L87.6187 341.755L159.677 343.053L159.767 344.338Z" fill="#00145A" fill-opacity="0.8"/>
<path d="M111.236 329.033H109.951L109.347 321.271H110.632L111.236 329.033Z" fill="#00145A" fill-opacity="0.8"/>
<path d="M146.995 331.643L145.826 322.159L147.098 322.094L148.28 331.591L146.995 331.643Z" fill="#00145A" fill-opacity="0.8"/>
<path d="M186.069 302.934L68.2164 302.073L68.1137 300.775L185.967 301.649L186.069 302.934Z" fill="#00145A" fill-opacity="0.8"/>
<path d="M188.755 299.051L65.8006 298.627L65.6978 297.329L188.665 297.753L188.755 299.051Z" fill="#00145A" fill-opacity="0.8"/>
<path d="M193.599 284.388H63.8221L63.7193 283.09H193.496L193.599 284.388Z" fill="#00145A" fill-opacity="0.8"/>
<path d="M66.4817 280.07L66.3789 278.785L194.408 278.348L194.511 279.646L66.4817 280.07Z" fill="#00145A" fill-opacity="0.8"/>
<path d="M231.877 291.727H194.614L194.511 290.429H231.774L231.877 291.727Z" fill="#00145A" fill-opacity="0.8"/>
<path d="M233.059 290.851L195.655 289.129L195.616 287.844L233.02 289.566L233.059 290.851Z" fill="#00145A" fill-opacity="0.8"/>
<path d="M225.401 272.153L224.116 272.037L225.465 185.768L226.75 185.897L225.401 272.153Z" fill="#00145A" fill-opacity="0.8"/>
<path d="M227.123 332.053L225.838 332.04L223.037 291.071L224.322 291.084L227.123 332.053Z" fill="#00145A" fill-opacity="0.8"/>
<path d="M186.892 343.298L185.594 343.233L185.195 327.272L186.493 327.337L186.892 343.298Z" fill="#00145A" fill-opacity="0.8"/>
<path d="M182.575 342.834H181.29L180.03 326.873H181.315L182.575 342.834Z" fill="#00145A" fill-opacity="0.8"/>
<path d="M209.519 342.398H208.234L206.975 326.437H208.26L209.519 342.398Z" fill="#00145A" fill-opacity="0.8"/>
<path d="M67.0728 279.453L65.7879 279.402L65.4409 269.481L66.7258 269.532L67.0728 279.453Z" fill="#00145A" fill-opacity="0.8"/>
<path d="M67.5483 296.328L64.6187 280.791L65.8779 280.65L68.8204 296.174L67.5483 296.328Z" fill="#00145A" fill-opacity="0.8"/>
<path d="M82.222 318.173L71.1845 303.073L72.1996 302.366L83.237 317.453L82.222 318.173Z" fill="#00145A" fill-opacity="0.8"/>
<path d="M171.473 318.892L84.0596 318.455L83.9697 317.17L171.383 317.594L171.473 318.892Z" fill="#00145A" fill-opacity="0.8"/>
<path d="M171.845 318.765L171.01 317.724L188.768 303.922L189.603 304.963L171.845 318.765Z" fill="#00145A" fill-opacity="0.8"/>
<path d="M189.821 304.627L188.549 304.254L193.252 282.266L194.511 282.626L189.821 304.627Z" fill="#00145A" fill-opacity="0.8"/>
<path d="M197.21 278.708L195.938 278.426L197.621 267.207L198.893 267.502L197.21 278.708Z" fill="#00145A" fill-opacity="0.8"/>
<path d="M70.9662 296.249H69.6813L68.769 284.606H70.0539L70.9662 296.249Z" fill="#00145A" fill-opacity="0.8"/>
<path d="M83.6997 315.527L75.7846 302.149L76.8896 301.558L84.7919 314.936L83.6997 315.527Z" fill="#00145A" fill-opacity="0.8"/>
<path d="M83.0831 316.734L82.9674 315.449L172.347 313.714L172.462 315.012L83.0831 316.734Z" fill="#00145A" fill-opacity="0.8"/>
<path d="M172.848 314.858L171.961 313.869L185.568 301.789L186.468 302.791L172.848 314.858Z" fill="#00145A" fill-opacity="0.8"/>
<path d="M186.07 300.785L184.836 300.336L189.577 284.375L190.811 284.837L186.07 300.785Z" fill="#00145A" fill-opacity="0.8"/>
<path d="M89.2505 278.207L87.9656 278.066L88.1712 269.867L89.4561 270.009L89.2505 278.207Z" fill="#00145A" fill-opacity="0.8"/>
<path d="M84.098 278.271L82.826 278.001L83.8924 269.802L85.1774 270.072L84.098 278.271Z" fill="#00145A" fill-opacity="0.8"/>
<path d="M179.76 279.89L178.476 279.838L178.052 269.056L179.336 269.108L179.76 279.89Z" fill="#00145A" fill-opacity="0.8"/>
<path d="M68.3191 279.119L67.0471 278.874L68.075 270.239L69.3599 270.496L68.3191 279.119Z" fill="#00145A" fill-opacity="0.8"/>
<path d="M63.9635 292.151L26.4952 289.568L26.4824 288.27L63.9506 290.866L63.9635 292.151Z" fill="#00145A" fill-opacity="0.8"/>
<path d="M32.7913 338.965L31.4935 338.926L29.0136 291.056L30.2985 291.095L32.7913 338.965Z" fill="#00145A" fill-opacity="0.8"/>
<path d="M73.9214 309.41L26.3536 308.973L26.2637 307.675L73.8315 308.112L73.9214 309.41Z" fill="#00145A" fill-opacity="0.8"/>
<path d="M56.7035 338.106L55.4186 338.067L54.8532 325.563L56.151 325.602L56.7035 338.106Z" fill="#00145A" fill-opacity="0.8"/>
<path d="M83.4555 340.712L82.1706 340.635L81.8108 325.111L83.0957 325.176L83.4555 340.712Z" fill="#00145A" fill-opacity="0.8"/>
<path d="M185.504 342L184.206 341.936L183.808 325.975L185.106 326.052L185.504 342Z" fill="#00145A" fill-opacity="0.8"/>
<path d="M228.883 335.714L214.299 335.277L214.235 333.992L228.819 334.416L228.883 335.714Z" fill="#00145A" fill-opacity="0.8"/>
<path d="M230.476 334.416L216.278 333.555L216.252 332.27L230.451 333.131L230.476 334.416Z" fill="#00145A" fill-opacity="0.8"/>
<path d="M231.144 345.058L229.615 336.422L230.874 336.293L232.416 344.929L231.144 345.058Z" fill="#00145A" fill-opacity="0.8"/>
<path d="M241.719 348.205L231.671 345.609L231.89 344.363L241.951 346.946L241.719 348.205Z" fill="#00145A" fill-opacity="0.8"/>
<path d="M314.24 114.254L305.426 105.618L306.286 104.732L315.101 113.355L314.24 114.254Z" fill="#00145A" fill-opacity="0.8"/>
<path d="M314.664 176.388L313.38 176.298L312.737 113.753L314.035 113.842L314.664 176.388Z" fill="#00145A" fill-opacity="0.8"/>
<path d="M305.952 183.342L305.117 182.288L313.611 175.824L314.433 176.865L305.952 183.342Z" fill="#00145A" fill-opacity="0.8"/>
<path d="M312.878 187.685L305.259 183.367L305.824 182.262L313.444 186.567L312.878 187.685Z" fill="#00145A" fill-opacity="0.8"/>
<path d="M316.168 228.113L312.518 187.132L313.803 187.119L317.452 228.088L316.168 228.113Z" fill="#00145A" fill-opacity="0.8"/>
<path d="M309.075 234.257L308.291 233.165L316.412 227.562L317.208 228.641L309.075 234.257Z" fill="#00145A" fill-opacity="0.8"/>
<path d="M308.651 234.346L305.194 233.922L305.259 232.637L308.715 233.061L308.651 234.346Z" fill="#00145A" fill-opacity="0.8"/>
<path d="M302.882 203.735L286.152 203.298L286.075 202L302.817 202.437L302.882 203.735Z" fill="#00145A" fill-opacity="0.8"/>
<path d="M274.099 227.998L272.943 227.342L285.535 202.322L286.691 202.977L274.099 227.998Z" fill="#00145A" fill-opacity="0.8"/>
<path d="M276.129 236.056L272.917 227.87L274.112 227.471L277.324 235.67L276.129 236.056Z" fill="#00145A" fill-opacity="0.8"/>
<path d="M302.509 236.942L276.772 236.505L276.695 235.22L302.419 235.644L302.509 236.942Z" fill="#00145A" fill-opacity="0.8"/>
<path d="M492.446 326.231L492.305 324.933L510.268 324.496L510.396 325.794L492.446 326.231Z" fill="#00145A" fill-opacity="0.8"/>
<path d="M531.135 323.212L519.969 322.775L519.917 321.477L531.083 321.914L531.135 323.212Z" fill="#00145A" fill-opacity="0.8"/>
<path d="M515.048 326.668C514.919 326.668 514.791 326.668 514.675 326.655C507.068 326.206 501.44 315.089 501.196 314.614L502.34 314.113C502.391 314.216 507.839 324.959 514.662 325.37C515.767 325.46 516.795 324.933 517.746 323.764C519.969 321.027 520.791 316.143 520.457 314.922L521.691 314.665C522.192 316.49 521.061 321.798 518.761 324.625C517.656 325.987 516.41 326.668 515.035 326.668H515.048Z" fill="#00145A" fill-opacity="0.8"/>
<path d="M537.714 323.34H537.688C531.944 323.314 527.409 313.715 527.216 313.303L528.372 312.841C528.411 312.931 532.703 322.029 537.585 322.055H537.598C540.798 322.055 543.779 317.968 546.246 310.245L547.479 310.72C544.806 319.099 541.517 323.34 537.701 323.34H537.714Z" fill="#00145A" fill-opacity="0.8"/>
<path d="M373.784 32.8941L333.501 21.6752L333.566 21.3282L373.861 32.5343L373.784 32.8941Z" fill="#00145A" fill-opacity="0.8"/>
<path d="M596.82 113.109L362.399 40.6555L362.476 40.3085L596.897 112.762L596.82 113.109Z" fill="#00145A" fill-opacity="0.8"/>
<path d="M43.8287 51.8763L43.7902 51.5165L269.461 45.4765L269.499 45.8364L43.8287 51.8763Z" fill="#00145A" fill-opacity="0.8"/>
<path d="M412.909 83.7848L339.039 64.8167L339.103 64.4569L412.973 83.4378L412.909 83.7848Z" fill="#00145A" fill-opacity="0.8"/>
<path d="M358.891 254.421L358.531 254.395L356.784 36.1595L357.144 36.1853L358.891 254.421Z" fill="#00145A" fill-opacity="0.8"/>
<path d="M493.255 244.241H345.066L345.04 243.882H493.23L493.255 244.241Z" fill="#00145A" fill-opacity="0.8"/>
<path d="M0.0385461 268.4L0 268.027L198.25 267.166L198.276 267.539L0.0385461 268.4Z" fill="#00145A" fill-opacity="0.8"/>
<path d="M31.7246 279.658L31.3648 279.62L33.3693 177.184L33.7291 177.223L31.7246 279.658Z" fill="#00145A" fill-opacity="0.8"/>
<path d="M6.09048 290.827L6.05193 290.454L62.4856 289.169L62.5242 289.529L6.09048 290.827Z" fill="#00145A" fill-opacity="0.8"/>
<path d="M16.8838 295.968L16.6268 295.672L34.6799 280.148L34.9369 280.431L16.8838 295.968Z" fill="#00145A" fill-opacity="0.8"/>
<path d="M27.9343 348.451L27.5617 348.438L24.5678 277.693L24.9405 277.706L27.9343 348.451Z" fill="#00145A" fill-opacity="0.8"/>
<path d="M235.783 346.897L11.2816 346.036L11.2559 345.663L235.757 346.537L235.783 346.897Z" fill="#00145A" fill-opacity="0.8"/>
<path d="M48.6086 353.758L20.2889 331.333L20.4945 331.05L48.8142 353.475L48.6086 353.758Z" fill="#00145A" fill-opacity="0.8"/>
<path d="M275.525 351.212L30.0541 345.172L30.0413 344.8L275.5 350.84L275.525 351.212Z" fill="#00145A" fill-opacity="0.8"/>
<path d="M231.247 363.112L230.875 363.099L226.827 289.771L227.187 289.784L231.247 363.112Z" fill="#00145A" fill-opacity="0.8"/>
<path d="M302.111 262.194L301.751 262.156L302.663 203.067L303.036 203.106L302.111 262.194Z" fill="#00145A" fill-opacity="0.8"/>
<path d="M286.884 245.102L286.846 244.743L363.877 243.882L363.915 244.241L286.884 245.102Z" fill="#00145A" fill-opacity="0.8"/>
<path d="M347.622 352.936L347.584 352.563L449.452 351.702L449.491 352.075L347.622 352.936Z" fill="#00145A" fill-opacity="0.8"/>
<path d="M497.174 348.616L452.703 345.493V345.121L497.174 348.256V348.616Z" fill="#00145A" fill-opacity="0.8"/>
<path d="M258.886 378.816L258.796 378.443L571.982 330.573L572.059 330.933L258.886 378.816Z" fill="#00145A" fill-opacity="0.8"/>
<path d="M183.834 383.124L183.757 382.764L561.857 327.119L561.934 327.492L183.834 383.124Z" fill="#00145A" fill-opacity="0.8"/>
<path d="M249.352 212.167L248.979 212.115L258.128 88.7583L258.488 88.8097L249.352 212.167Z" fill="#00145A" fill-opacity="0.8"/>
<path d="M251.472 206.562L251.112 206.511L260.312 78.4123L260.672 78.4637L251.472 206.562Z" fill="#00145A" fill-opacity="0.8"/>
<path d="M228.138 183.418L227.958 183.071L239.548 177.905L239.715 178.239L228.138 183.418Z" fill="#00145A" fill-opacity="0.8"/>
<path d="M233.046 192.053L232.982 191.694L343.524 181.336L343.588 181.696L233.046 192.053Z" fill="#00145A" fill-opacity="0.8"/>
<path d="M342.316 188.584L323.145 179.1L323.286 178.766L342.457 188.262L342.316 188.584Z" fill="#00145A" fill-opacity="0.8"/>
<path d="M336.611 205.24H336.251L334.336 175.478L334.696 175.49L336.611 205.24Z" fill="#00145A" fill-opacity="0.8"/>
<path d="M328.22 197.632L327.989 197.323L339.772 189.124L339.99 189.433L328.22 197.632Z" fill="#00145A" fill-opacity="0.8"/>
<path d="M234.112 198.442L233.778 198.249L238.995 188.329L239.329 188.521L234.112 198.442Z" fill="#00145A" fill-opacity="0.8"/>
<path d="M351.503 136.409L332.113 129.508L332.216 129.161L351.606 136.062L351.503 136.409Z" fill="#00145A" fill-opacity="0.8"/>
<path d="M345.798 262.183L345.438 262.17L340.799 67.2078L341.172 67.2335L345.798 262.183Z" fill="#00145A" fill-opacity="0.8"/>
<path d="M38.2649 111.826L38.2135 111.466L52.7074 110.605L52.7588 110.965L38.2649 111.826Z" fill="#00145A" fill-opacity="0.8"/>
<path d="M408.065 236.955L407.692 236.929L406.639 76.4846L406.999 76.5103L408.065 236.955Z" fill="#00145A" fill-opacity="0.8"/>
<path d="M433.121 236.957L432.748 236.931L432.196 82.9503L432.568 82.976L433.121 236.957Z" fill="#00145A" fill-opacity="0.8"/>
<path d="M389.986 269.444L389.742 269.148L401.833 259.446L402.078 259.741L389.986 269.444Z" fill="#00145A" fill-opacity="0.8"/>
<path d="M486.844 270.099L471.296 260.384L471.476 260.088L487.011 269.791L486.844 270.099Z" fill="#00145A" fill-opacity="0.8"/>
<path d="M488.758 268.824L419.925 267.539L419.899 267.166L488.745 268.464L488.758 268.824Z" fill="#00145A" fill-opacity="0.8"/>
<path d="M402.502 281.742L402.283 281.433L427.301 264.611L427.519 264.92L402.502 281.742Z" fill="#00145A" fill-opacity="0.8"/>
<path d="M490.711 278.503L473.095 266.86L473.275 266.551L490.891 278.194L490.711 278.503Z" fill="#00145A" fill-opacity="0.8"/>
<path d="M326.82 275.275L326.627 274.954L347.61 263.954L347.789 264.275L326.82 275.275Z" fill="#00145A" fill-opacity="0.8"/>
<path d="M389.871 269.48L329.968 267.539L329.955 267.166L389.858 269.107L389.871 269.48Z" fill="#00145A" fill-opacity="0.8"/>
<path d="M401.474 310.874L373.591 307.648L373.604 307.276L401.486 310.514L401.474 310.874Z" fill="#00145A" fill-opacity="0.8"/>
<path d="M369.286 317.338L369.145 316.991L399.174 306.646L399.315 306.993L369.286 317.338Z" fill="#00145A" fill-opacity="0.8"/>
<path d="M236.837 349.056L236.76 348.683L281.269 342.862L281.346 343.234L236.837 349.056Z" fill="#00145A" fill-opacity="0.8"/>
<path d="M267.88 357.96L267.52 357.896L269.73 328.788L270.09 328.84L267.88 357.96Z" fill="#00145A" fill-opacity="0.8"/>
<path d="M335.017 345.675L334.658 345.598L337.086 327.478L337.446 327.555L335.017 345.675Z" fill="#00145A" fill-opacity="0.8"/>
</svg>
