<svg width="31" height="28" viewBox="0 0 31 28" fill="none" xmlns="http://www.w3.org/2000/svg">
<path d="M15.4698 3.73438C11.5628 3.73438 6.49189 4.71328 6.49189 4.71328L6.47913 4.72786C4.69971 5.01245 3.33643 6.54149 3.33643 8.40104V14.001V14.0029V19.601V19.6029C3.33816 20.491 3.65644 21.3494 4.2341 22.0239C4.81177 22.6985 5.61099 23.145 6.48825 23.2833L6.49189 23.2888C6.49189 23.2888 11.5628 24.2695 15.4698 24.2695C19.3767 24.2695 24.4476 23.2888 24.4476 23.2888L24.4494 23.287C25.3277 23.1489 26.1278 22.7021 26.7059 22.0267C27.284 21.3513 27.6022 20.4919 27.6031 19.6029V19.601V14.0029V14.001V8.40104C27.6018 7.51263 27.2837 6.6538 26.706 5.97886C26.1283 5.30393 25.3288 4.85713 24.4513 4.71875L24.4476 4.71328C24.4476 4.71328 19.3767 3.73438 15.4698 3.73438ZM12.6698 9.70625L20.1364 14.001L12.6698 18.2958V9.70625Z" fill="#2B3944"/>
</svg>
